<svg width="389" height="276" viewBox="0 0 389 276" fill="none" xmlns="http://www.w3.org/2000/svg">
<g clip-path="url(#clip0)">
<path opacity="0.1" d="M129.326 275.845C148.27 275.845 163.627 273.374 163.627 270.327C163.627 267.279 148.27 264.808 129.326 264.808C110.382 264.808 95.0251 267.279 95.0251 270.327C95.0251 273.374 110.382 275.845 129.326 275.845Z" fill="#EFC8C4"/>
<path opacity="0.1" d="M315.783 276C339.422 276 358.585 273.529 358.585 270.482C358.585 267.434 339.422 264.963 315.783 264.963C292.143 264.963 272.98 267.434 272.98 270.482C272.98 273.529 292.143 276 315.783 276Z" fill="#EFC8C4"/>
<path opacity="0.1" d="M4.87198 119.252H40.5988V168.028H7.48751C7.39951 168.529 7.31502 169.033 7.2235 169.537H40.5988V208.874C40.539 208.856 40.4862 208.835 40.4299 208.814C39.4864 208.44 38.5501 208.045 37.6137 207.622L37.0152 207.351C36.0765 206.906 35.1378 206.436 34.199 205.94C33.8717 205.768 33.5443 205.588 33.2204 205.404C28.009 202.48 23.2747 198.775 19.1817 194.417C19.062 194.301 18.9494 194.177 18.8297 194.065C18.2594 193.444 17.6997 192.816 17.1576 192.175L16.5592 191.469C15.9185 190.683 15.2989 189.876 14.697 189.058C14.6089 188.938 14.5245 188.818 14.4329 188.705C11.9848 185.305 9.95203 181.623 8.37813 177.739C8.32885 177.622 8.28661 177.496 8.24084 177.386C7.7574 176.14 7.3291 174.883 6.95596 173.613C6.79403 173.081 6.63914 172.555 6.50537 172.002C6.45608 171.84 6.41384 171.681 6.37512 171.522C4.37563 163.705 4.13977 155.584 4.13977 147.52C4.13977 146.579 4.13977 145.634 4.13977 144.7C4.13977 141.438 4.17849 138.155 4.23482 134.876C4.23482 134.026 4.27002 133.18 4.28762 132.327C4.3369 130.162 4.40731 127.996 4.49883 125.831C4.51996 125.229 4.54812 124.629 4.5798 124.03C4.5798 123.684 4.5974 123.339 4.6326 122.993C4.71709 121.738 4.78749 120.493 4.87198 119.252Z" fill="#EFC8C4"/>
<path opacity="0.1" d="M40.5989 64.9433H21.0017C24.1873 59.9488 27.668 55.1495 31.4251 50.571C34.3364 46.9885 37.4095 43.4977 40.5989 40.1338V64.9433Z" fill="#EFC8C4"/>
<path opacity="0.1" d="M40.5988 66.4524V117.743H4.98462C4.98462 117.595 5.00926 117.443 5.01982 117.295C5.0515 116.889 5.08318 116.484 5.11839 116.082C5.15711 115.609 5.19935 115.133 5.24512 114.671C5.29088 114.21 5.34016 113.645 5.39297 113.134C5.44577 112.623 5.49505 112.104 5.5549 111.593C5.61474 111.082 5.66754 110.571 5.73091 110.063C5.79427 109.555 5.8506 109.04 5.91748 108.533C5.97029 108.109 6.02661 107.69 6.08293 107.267C6.1639 106.671 6.24838 106.071 6.33991 105.479C6.33991 105.391 6.36455 105.299 6.37863 105.215C7.02114 100.878 7.8966 96.5794 9.0012 92.3373C10.1575 87.8874 11.634 83.5271 13.4191 79.2908C15.3164 74.8592 17.5378 70.5739 20.0653 66.47L40.5988 66.4524Z" fill="#EFC8C4"/>
<path opacity="0.1" d="M49.1284 119.248V168.028H125.437V119.248H49.1284ZM49.1284 169.534V211.423C49.5649 211.515 49.9979 211.603 50.4274 211.677C51.0117 211.79 51.5926 211.892 52.1875 211.981C52.3001 211.998 52.4163 212.016 52.5395 212.026C52.7719 212.065 53.0112 212.097 53.2436 212.129C53.8315 212.21 54.4158 212.277 55.0037 212.33C55.2818 212.358 55.5634 212.383 55.845 212.404L56.5244 212.457C56.8941 212.485 57.2602 212.506 57.6227 212.517C57.848 212.517 58.0733 212.538 58.3057 212.545C58.4817 212.545 58.6577 212.545 58.8407 212.545C59.0238 212.545 59.2843 212.545 59.5061 212.545C59.8088 212.545 60.1115 212.545 60.4108 212.545H60.8156C61.1183 212.545 61.4211 212.545 61.7203 212.517H61.7414C61.9491 212.517 62.1603 212.517 62.3715 212.488C62.4302 212.492 62.4889 212.492 62.5475 212.488C62.7236 212.488 62.8996 212.488 63.0685 212.464H63.1918L64.371 212.372C64.7583 212.337 65.149 212.291 65.5433 212.249L66.3459 212.153C69.6112 211.695 72.8402 211.007 76.0089 210.094C83.1268 208.105 90.0899 205.323 97.2042 203.285C106.403 200.658 116.566 199.368 125.454 202.58V169.534H49.1284ZM125.437 64.9432V0.00350819C117.082 -0.0871555 108.75 0.891614 100.644 2.91605C81.321 7.7785 63.9838 18.325 49.1284 31.7946V64.9397H52.9584V66.4453H49.1284V117.743H125.437V66.4489H68.6833V64.9432H125.437ZM223.45 43.0075C218.67 42.8383 213.918 41.3221 209.619 38.9807C201.4 34.5026 194.834 27.588 187.498 21.7523C172.256 9.59796 153.352 2.26372 133.959 0.444268V64.9432H242.893L243.164 64.6576L223.45 43.0075ZM233.374 41.2445L243.896 52.81V38.2121C240.372 38.6493 237.285 39.6895 233.388 41.2304L233.374 41.2445ZM243.896 221.825V169.534H221.476C221.416 169.312 221.356 169.086 221.285 168.86C221.352 169.086 221.409 169.312 221.472 169.534H133.973V207.351C134.804 207.968 135.624 208.617 136.437 209.276C137.314 209.981 138.18 210.725 139.049 211.455L139.926 212.182C140.345 212.534 140.767 212.887 141.193 213.218C142.038 213.905 142.891 214.582 143.752 215.249C144.178 215.602 144.615 215.919 145.048 216.251C151.922 221.515 159.173 226.266 166.743 230.464C168.44 231.405 170.152 232.322 171.879 233.218C173.03 233.807 174.188 234.392 175.35 234.96C177.096 235.813 178.856 236.636 180.63 237.428C196.988 244.783 214.284 249.83 232.026 252.425C235.966 253.008 239.922 253.466 243.892 253.8V221.822H244.244L243.896 221.825ZM133.973 66.4489V117.743H243.91V66.4489H133.973ZM133.973 119.248V168.028H243.91V119.248H133.973ZM252.443 38.1486V54.432L265.873 39.6719C261.423 38.9525 256.947 38.4389 252.443 38.131V38.1486ZM252.443 119.266V168.028H359.37V119.248L252.443 119.266ZM358.979 225.697L359.356 169.534H252.443V254.36C259.33 254.65 266.228 254.568 273.107 254.114V254.114H273.227C276.512 253.907 279.782 253.606 283.037 253.211H283.111C300.477 251.187 317.457 246.648 333.521 239.738L358.979 225.697ZM379.988 127.281C379.587 126.332 379.168 125.391 378.742 124.46C377.946 122.697 377.105 120.983 376.239 119.269H367.896V168.028H388.989C388.979 154.22 385.49 140.116 379.999 127.263L379.988 127.281ZM367.896 169.551V217.859C373.838 212.153 378.858 205.627 382.473 198.165C386.821 189.181 388.81 179.453 388.972 169.544L367.896 169.551ZM367.896 105.052V117.746H375.458C373.17 113.376 370.65 109.133 367.907 105.035L367.896 105.052ZM295.379 47.7184C294.823 47.5068 294.267 47.2917 293.707 47.0837C287.804 44.9001 281.772 43.0842 275.645 41.6465L255.094 64.238L254.7 64.6576L254.964 64.9468H328.107C317.92 57.923 306.938 52.1339 295.39 47.7007L295.379 47.7184ZM330.251 66.4665H253.943L252.443 67.8417V117.743H265.588H265.609H359.384V93.5714C350.901 83.295 341.11 74.1765 330.261 66.4489L330.251 66.4665Z" fill="#EFC8C4"/>
<path opacity="0.1" d="M40.5988 92.3232V117.743H4.98462C4.98462 117.595 5.00926 117.443 5.01982 117.295C5.0515 116.889 5.08318 116.484 5.11839 116.082C5.15711 115.609 5.19935 115.133 5.24512 114.672C5.29088 114.21 5.34016 113.645 5.39297 113.134C5.44577 112.623 5.49505 112.105 5.5549 111.593C5.61474 111.082 5.66754 110.571 5.73091 110.063C5.79427 109.555 5.8506 109.04 5.91748 108.533C5.97029 108.109 6.02661 107.69 6.08293 107.267C6.1639 106.671 6.24838 106.071 6.33991 105.479C6.33991 105.391 6.36455 105.299 6.37863 105.215C7.02114 100.878 7.8966 96.5794 9.0012 92.3373L40.5988 92.3232Z" fill="#EFC8C4"/>
<path opacity="0.1" d="M4.87198 119.252H40.5988V168.028H7.48751C7.39951 168.529 7.31502 169.033 7.2235 169.537H40.5988V208.874C40.539 208.856 40.4862 208.835 40.4299 208.814C39.4864 208.44 38.5501 208.045 37.6137 207.622L37.0152 207.351C36.0765 206.906 35.1378 206.436 34.199 205.94C33.8717 205.768 33.5443 205.588 33.2204 205.404C28.009 202.48 23.2747 198.775 19.1817 194.417C19.062 194.301 18.9494 194.177 18.8297 194.065C18.2594 193.444 17.6997 192.816 17.1576 192.175L16.5592 191.469C15.9185 190.683 15.2989 189.876 14.697 189.058C14.6089 188.938 14.5245 188.818 14.4329 188.705C11.9848 185.305 9.95203 181.623 8.37813 177.739C8.32885 177.622 8.28661 177.496 8.24084 177.386C7.7574 176.14 7.3291 174.883 6.95596 173.613C6.79403 173.081 6.63914 172.555 6.50537 172.002C6.45608 171.84 6.41384 171.681 6.37512 171.522C4.37563 163.705 4.13977 155.584 4.13977 147.52C4.13977 146.579 4.13977 145.634 4.13977 144.7C4.13977 141.438 4.17849 138.155 4.23482 134.876C4.23482 134.026 4.27002 133.18 4.28762 132.327C4.3369 130.162 4.40731 127.996 4.49883 125.831C4.51996 125.229 4.54812 124.629 4.5798 124.03C4.5798 123.684 4.5974 123.339 4.6326 122.993C4.71709 121.738 4.78749 120.493 4.87198 119.252Z" fill="#EFC8C4"/>
<path opacity="0.1" d="M75.9913 73.7937V117.743H49.1284V73.7937H52.9584V58.9136H68.6798V73.7937H75.9913Z" fill="#EFC8C4"/>
<path opacity="0.1" d="M75.9913 119.248H49.132V168.025H75.9913V119.248Z" fill="#EFC8C4"/>
<path opacity="0.1" d="M49.1284 169.537H75.9913V210.087C72.8226 210.999 69.5936 211.686 66.3283 212.143L65.5257 212.242C65.1314 212.287 64.7407 212.326 64.3534 212.365C63.9662 212.404 63.5649 212.432 63.1742 212.457H63.051C62.882 212.457 62.6989 212.478 62.5335 212.481H62.3539C62.1427 212.481 61.9315 212.502 61.7203 212.51C61.4211 212.527 61.1219 212.531 60.8156 212.534C60.6853 212.534 60.5621 212.534 60.4319 212.534C60.1292 212.534 59.8299 212.534 59.5272 212.534H58.8619C58.6823 212.534 58.5098 212.534 58.3233 212.534L57.6439 212.51C57.2918 212.51 56.9117 212.471 56.5456 212.446L55.8697 212.397L55.0283 212.319C54.4369 212.266 53.8491 212.199 53.2682 212.118L52.5642 212.019L52.2121 211.97C51.6243 211.878 51.0434 211.78 50.452 211.667C50.019 211.593 49.5896 211.501 49.1531 211.413L49.1284 169.537Z" fill="#EFC8C4"/>
<path opacity="0.1" d="M243.91 68.6033H221.761V117.739H243.91V68.6033Z" fill="#EFC8C4"/>
<path opacity="0.1" d="M243.914 119.248V168.028H133.973V146.988H192.532V159.4H221.761V119.248H243.914Z" fill="#EFC8C4"/>
<path opacity="0.1" d="M244.262 221.836H243.91V253.835C239.944 253.499 235.989 253.042 232.047 252.463C214.296 249.86 196.993 244.803 180.63 237.435C175.906 235.306 171.278 232.981 166.746 230.461C159.177 226.26 151.924 221.51 145.048 216.247C143.32 214.921 141.615 213.565 139.933 212.178C138.768 211.215 137.609 210.228 136.437 209.269C135.624 208.61 134.804 207.961 133.973 207.34V169.537H221.468C221.409 169.312 221.349 169.086 221.285 168.864C221.352 169.086 221.416 169.312 221.476 169.537H243.91V221.815C244.03 221.818 244.146 221.829 244.262 221.836Z" fill="#EFC8C4"/>
<path opacity="0.1" d="M301.677 64.9433H287.244V60.451H293.714V47.0696C294.275 47.2741 294.834 47.4845 295.39 47.7008V60.451H301.677V64.9433Z" fill="#EFC8C4"/>
<path opacity="0.1" d="M336.45 117.743H265.595C265.595 117.743 265.595 117.743 265.619 117.76L265.588 117.743H252.443V68.6068H256.167V104.925H273.188V83.4163H287.248V66.4524H301.681V83.4304H315.74V104.939H336.45V117.743Z" fill="#EFC8C4"/>
<path opacity="0.1" d="M252.443 119.248V168.028H336.45V119.248H252.443ZM359.254 225.447L359.37 186.836H336.45V169.558H252.443V254.36C259.33 254.65 266.228 254.568 273.107 254.114V254.114H273.226C276.512 253.907 279.782 253.606 283.037 253.211H283.111C300.477 251.187 317.457 246.648 333.521 239.738" fill="#EFC8C4"/>
<path opacity="0.1" d="M369.389 169.537H388.986C388.813 179.442 386.828 189.17 382.484 198.155C378.869 205.62 373.845 212.146 367.91 217.848V186.819H369.389V169.537Z" fill="#EFC8C4"/>
<path opacity="0.1" d="M388.996 168.028H369.389V127.263H379.999C385.49 140.116 388.979 154.22 388.996 168.028Z" fill="#EFC8C4"/>
<path opacity="0.1" d="M243.914 82.2633H232.047V97.6687H243.914V82.2633Z" fill="#EFC8C4"/>
<path opacity="0.1" d="M243.914 114.195H232.047V117.743H243.914V114.195Z" fill="#EFC8C4"/>
<path opacity="0.1" d="M243.914 119.248H232.047V129.597H243.914V119.248Z" fill="#EFC8C4"/>
<path opacity="0.1" d="M243.914 146.128H232.047V161.533H243.914V146.128Z" fill="#EFC8C4"/>
<path opacity="0.1" d="M243.914 178.06H232.047V193.465H243.914V178.06Z" fill="#EFC8C4"/>
<path opacity="0.1" d="M243.91 221.815C244.03 221.815 244.146 221.815 244.262 221.836H243.91V225.415H232.047V209.992H243.91V221.815Z" fill="#EFC8C4"/>
<path opacity="0.1" d="M243.91 241.917V253.817C239.944 253.481 235.99 253.024 232.047 252.446V241.917H243.91Z" fill="#EFC8C4"/>
<path opacity="0.1" d="M184.83 166.896H133.973V168.028H184.83V166.896Z" fill="#EFC8C4"/>
<path opacity="0.1" d="M184.83 169.534H133.973V173.871H184.83V169.534Z" fill="#EFC8C4"/>
<path opacity="0.1" d="M184.83 188.088H133.973V195.062H184.83V188.088Z" fill="#EFC8C4"/>
<path opacity="0.1" d="M184.826 209.28V216.254H145.048C143.32 214.933 141.614 213.577 139.929 212.185C138.764 211.222 137.609 210.235 136.434 209.28H184.826Z" fill="#EFC8C4"/>
<path opacity="0.1" d="M184.826 230.468V237.435H180.627C175.907 235.303 171.281 232.977 166.746 230.457L184.826 230.468Z" fill="#EFC8C4"/>
<path opacity="0.1" d="M283.122 123.977H273.11V134.005H283.122V123.977Z" fill="#EFC8C4"/>
<path opacity="0.1" d="M66.3529 77.2528H56.3413V87.281H66.3529V77.2528Z" fill="#EFC8C4"/>
<path opacity="0.1" d="M66.3529 100.546H56.3413V110.574H66.3529V100.546Z" fill="#EFC8C4"/>
<path opacity="0.1" d="M66.3529 123.839H56.3413V133.867H66.3529V123.839Z" fill="#EFC8C4"/>
<path opacity="0.1" d="M66.3529 147.129H56.3413V157.157H66.3529V147.129Z" fill="#EFC8C4"/>
<path opacity="0.1" d="M66.3529 170.422H56.3413V180.45H66.3529V170.422Z" fill="#EFC8C4"/>
<path opacity="0.1" d="M66.3529 193.716H56.3413V203.744H66.3529V193.716Z" fill="#EFC8C4"/>
<path opacity="0.1" d="M321.341 123.977H311.329V134.005H321.341V123.977Z" fill="#EFC8C4"/>
<path opacity="0.1" d="M283.122 148.712H273.11V158.74H283.122V148.712Z" fill="#EFC8C4"/>
<path opacity="0.1" d="M321.341 148.712H311.329V158.74H321.341V148.712Z" fill="#EFC8C4"/>
<path opacity="0.1" d="M283.122 173.444H273.11V183.472H283.122V173.444Z" fill="#EFC8C4"/>
<path opacity="0.1" d="M321.341 173.444H311.329V183.472H321.341V173.444Z" fill="#EFC8C4"/>
<path opacity="0.1" d="M283.122 198.18H273.11V208.208H283.122V198.18Z" fill="#EFC8C4"/>
<path opacity="0.1" d="M321.341 198.18H311.329V208.208H321.341V198.18Z" fill="#EFC8C4"/>
<path opacity="0.1" d="M283.122 222.915H273.11V232.943H283.122V222.915Z" fill="#EFC8C4"/>
<path opacity="0.1" d="M321.341 222.915H311.329V232.943H321.341V222.915Z" fill="#EFC8C4"/>
<path opacity="0.1" d="M273.11 254.114V247.647H283.118V253.193L273.11 254.114Z" fill="#EFC8C4"/>
<path opacity="0.1" d="M6.33643 105.208V110.944H40.5989V105.208H6.33643ZM9.75105 110.585H6.95599V105.56H9.77218L9.75105 110.585ZM13.1622 110.585H10.346V105.56H13.1622V110.585ZM16.5662 110.585H13.75V105.56H16.5662V110.585ZM19.9773 110.585H17.1647V105.56H19.9809L19.9773 110.585ZM23.3849 110.585H20.5687V105.56H23.3849V110.585ZM26.796 110.585H23.9798V105.56H26.796V110.585ZM30.2071 110.585H27.3909V105.56H30.2071V110.585ZM33.6147 110.585H30.7985V105.56H33.6147V110.585ZM37.0223 110.585H34.2061V105.56H37.0223V110.585ZM40.4299 110.585H37.6137V105.56H40.4299V110.585Z" fill="#EFC8C4"/>
<path opacity="0.1" d="M6.33643 121.9V127.637H40.5989V121.9H6.33643ZM9.75105 127.274H6.95599V122.263H9.77218L9.75105 127.274ZM13.1622 127.274H10.346V122.263H13.1622V127.274ZM16.5662 127.274H13.75V122.263H16.5662V127.274ZM19.9773 127.274H17.1647V122.263H19.9809L19.9773 127.274ZM23.3849 127.274H20.5687V122.263H23.3849V127.274ZM26.796 127.274H23.9798V122.263H26.796V127.274ZM30.2071 127.274H27.3909V122.263H30.2071V127.274ZM33.6147 127.274H30.7985V122.263H33.6147V127.274ZM37.0223 127.274H34.2061V122.263H37.0223V127.274ZM40.4299 127.274H37.6137V122.263H40.4299V127.274Z" fill="#EFC8C4"/>
<path opacity="0.1" d="M6.33643 138.599V144.347H40.5989V138.599H6.33643ZM9.75105 143.973H6.95599V138.959H9.77218L9.75105 143.973ZM13.1622 143.973H10.346V138.959H13.1622V143.973ZM16.5662 143.973H13.75V138.959H16.5662V143.973ZM19.9773 143.973H17.1647V138.959H19.9809L19.9773 143.973ZM23.3849 143.973H20.5687V138.959H23.3849V143.973ZM26.796 143.973H23.9798V138.959H26.796V143.973ZM30.2071 143.973H27.3909V138.959H30.2071V143.973ZM33.6147 143.973H30.7985V138.959H33.6147V143.973ZM37.0223 143.973H34.2061V138.959H37.0223V143.973ZM40.4299 143.973H37.6137V138.959H40.4299V143.973Z" fill="#EFC8C4"/>
<path opacity="0.1" d="M6.33643 155.299V161.029H40.5989V155.299H6.33643ZM9.75105 160.673H6.95599V155.655H9.77218L9.75105 160.673ZM13.1622 160.673H10.346V155.655H13.1622V160.673ZM16.5662 160.673H13.75V155.655H16.5662V160.673ZM19.9773 160.673H17.1647V155.655H19.9809L19.9773 160.673ZM23.3849 160.673H20.5687V155.655H23.3849V160.673ZM26.796 160.673H23.9798V155.655H26.796V160.673ZM30.2071 160.673H27.3909V155.655H30.2071V160.673ZM33.6147 160.673H30.7985V155.655H33.6147V160.673ZM37.0223 160.673H34.2061V155.655H37.0223V160.673ZM40.4299 160.673H37.6137V155.655H40.4299V160.673Z" fill="#EFC8C4"/>
<path opacity="0.1" d="M6.48425 171.995C6.62154 172.534 6.77643 173.074 6.93836 173.606V172.355H9.75455V177.369H8.24789C8.29365 177.485 8.33941 177.612 8.38518 177.721H40.5988V171.995H6.48425ZM13.1727 177.369H10.3565V172.355H13.1727V177.369ZM16.5768 177.369H13.7606V172.355H16.5768V177.369ZM19.9879 177.369H17.1646V172.355H19.9808L19.9879 177.369ZM23.3955 177.369H20.5793V172.355H23.3955V177.369ZM26.8066 177.369H23.9904V172.355H26.8066V177.369ZM30.2177 177.369H27.4015V172.355H30.2177V177.369ZM33.6253 177.369H30.8091V172.355H33.6253V177.369ZM37.0328 177.369H34.2167V172.355H37.0328V177.369ZM40.4404 177.369H37.6242V172.355H40.4404V177.369Z" fill="#EFC8C4"/>
<path opacity="0.1" d="M14.4399 188.694C14.5279 188.807 14.6124 188.934 14.704 189.047H16.5662V191.455C16.7668 191.695 16.9639 191.935 17.1681 192.161V189.033H19.9843V194.065H18.8438C18.9564 194.181 19.0655 194.304 19.1958 194.417H40.6094V188.694H14.4399ZM23.3849 194.065H20.5687V189.054H23.3849V194.065ZM26.796 194.065H23.9798V189.054H26.796V194.065ZM30.2071 194.065H27.3909V189.054H30.2071V194.065ZM33.6147 194.065H30.7985V189.054H33.6147V194.065ZM37.0222 194.065H34.2061V189.054H37.0222V194.065ZM40.4298 194.065H37.6136V189.054H40.4298V194.065Z" fill="#EFC8C4"/>
<path opacity="0.1" d="M33.2345 205.39C33.5548 205.574 33.8822 205.743 34.2131 205.926V205.75H37.0293V207.337L37.6278 207.615V205.75H40.4439V208.8C40.4979 208.827 40.5546 208.848 40.6129 208.864V205.39H33.2345Z" fill="#EFC8C4"/>
<path opacity="0.1" d="M265.595 117.743H265.616H265.595ZM243.91 221.811H244.262H243.91ZM221.285 168.86C221.352 169.086 221.409 169.312 221.472 169.534C221.416 169.312 221.356 169.086 221.285 168.86ZM265.595 117.732H265.616H265.595ZM52.9725 64.9327V66.4383H68.6974V64.9327H52.9725ZM243.91 221.811H244.262H243.91ZM221.285 168.86C221.352 169.086 221.409 169.312 221.472 169.534C221.416 169.312 221.356 169.086 221.285 168.86ZM265.595 117.732H265.616H265.595ZM243.91 221.801H244.262H243.91ZM221.285 168.86C221.352 169.086 221.409 169.312 221.472 169.534C221.416 169.312 221.356 169.086 221.285 168.86Z" fill="#EFC8C4"/>
<path d="M162.494 133.875C162.494 133.875 161.107 133.681 161.107 131.657C161.107 129.633 160.114 125.853 160.114 125.853C160.114 125.835 159.255 119.27 158.069 118.226C156.883 117.182 155.358 111.054 155.358 111.054C155.358 111.054 155.098 107.729 154.566 107.013C154.035 106.297 153.317 104.545 152.257 102.045C151.198 99.5446 146.78 97.8133 146.78 97.8133C146.78 97.8133 138.792 93.173 136.529 91.6603C136.323 91.536 136.131 91.3907 135.955 91.2266C135.561 90.7083 133.843 90.6977 133.843 90.6977C133.663 89.5623 133.491 88.2577 133.434 87.0764C133.434 86.9495 133.434 86.8226 133.417 86.6956C135.941 85.2012 137.842 82.845 138.771 80.0595C138.813 79.9256 138.849 79.7845 138.887 79.6505C139.039 79.6006 139.178 79.5197 139.296 79.4128C139.414 79.3059 139.509 79.1755 139.574 79.0299C139.778 78.5751 139.781 78.0426 140.035 77.6195C140.331 77.1188 140.894 76.8508 141.337 76.4735C142.457 75.5215 142.745 73.9171 142.693 72.4573C142.657 71.2761 142.467 70.0843 142.541 68.9101L142.562 68.6139C142.584 68.4376 142.608 68.2613 142.64 68.0921C142.812 67.2176 143.189 66.3925 143.4 65.5251C143.611 64.6577 143.633 63.6809 143.14 62.9334C142.418 61.8368 140.915 61.6182 139.595 61.5053C138.099 61.3784 136.761 61.5441 135.804 60.2994C135.355 59.6489 134.851 59.0389 134.297 58.4764C134.1 58.2931 132.185 57.1224 132.185 57.0449C130.316 56.1778 128.197 56.015 126.218 56.5865C125.225 56.8756 124.289 57.3481 123.282 57.5843C121.11 58.0992 118.611 57.542 116.766 58.7867C115.738 59.492 115.122 60.6132 114.545 61.7063C114.076 62.6067 113.599 63.5058 113.116 64.4038C112.338 65.8812 111.546 67.3833 111.218 69.0194C111.149 69.3754 111.107 69.7361 111.092 70.0984V70.116C111.092 70.2465 111.092 70.3769 111.092 70.5074V70.6731C111.092 70.7965 111.092 70.9164 111.113 71.0257C111.134 71.1351 111.13 71.1703 111.141 71.2444C111.151 71.3184 111.169 71.4841 111.19 71.597C111.211 71.7098 111.253 71.9073 111.296 72.0624C111.313 72.1294 111.338 72.1929 111.359 72.2563C111.394 72.3762 111.437 72.4926 111.482 72.6089C111.507 72.6689 111.532 72.7324 111.56 72.7923C111.613 72.9157 111.676 73.0356 111.739 73.1449C111.767 73.1943 111.789 73.2401 111.817 73.286C111.915 73.4499 112.023 73.6077 112.141 73.7585C112.894 74.6999 114.003 75.2993 114.823 76.1809C114.823 76.2161 114.823 76.2514 114.823 76.2831C114.823 76.3819 114.823 76.4771 114.823 76.5758C114.866 78.5418 115.389 80.4673 116.345 82.1849C117.301 83.9026 118.661 85.3602 120.308 86.4312C120.308 86.5652 120.325 86.7027 120.332 86.8367C120.401 87.8833 120.388 88.9338 120.293 89.9784C120.15 89.8093 119.971 89.6746 119.768 89.5843C119.566 89.4939 119.346 89.4503 119.125 89.4565C118.973 89.4491 118.822 89.4622 118.674 89.4953L118.642 89.4706V89.5024C117.868 89.6928 116.914 90.5003 116.002 92.7957C116.002 92.7957 113.228 95.9269 111.116 95.7964C109.004 95.666 103.657 99.0545 103.657 99.0545C103.657 99.0545 98.4398 102.447 97.3204 105.902C96.6947 107.862 95.9445 109.779 95.0745 111.643L88.6254 124.954L87.4355 135.514C87.4355 135.514 88.0938 140.211 87.9636 140.927C87.8333 141.642 90.6706 148.099 90.6706 148.099C90.6706 148.099 100.045 164.597 103.875 165.443L104.15 165.25C104.313 165.335 104.487 165.4 104.667 165.443L105.456 164.886C105.503 165.507 105.483 166.132 105.396 166.748C104.868 168.377 105.593 179.008 106.515 181.092C107.438 183.176 107.11 210.5 107.11 210.5L106.98 212.911C106.98 212.911 106.98 212.989 107.012 213.123L106.98 213.694L107.075 213.744C107.174 214.509 107.141 215.285 106.98 216.039C106.649 217.097 106.515 220.087 106.515 220.087C106.515 220.087 103.879 236.97 105.128 240.362C106.378 243.754 107.441 247.471 107.441 247.471C107.441 247.471 108.761 251.702 107.504 252.425C106.248 253.148 102.675 254.361 103.41 256.124C104.079 257.753 106.617 262.118 106.994 262.756L106.962 263.091L106.445 268.708C106.529 269.45 106.729 270.173 107.04 270.852C107.606 272.076 108.708 273.345 110.803 273.207C111.155 273.183 111.563 273.14 111.958 273.087C115.791 272.573 120.512 270.859 120.512 270.859C120.267 270.703 120.042 270.517 119.843 270.305V270.305C119.654 270.123 119.505 269.903 119.404 269.661C119.303 269.418 119.252 269.158 119.255 268.895C119.311 267.872 117.4 262.999 116.925 261.801C116.851 261.628 116.812 261.529 116.812 261.529C116.812 261.529 121.17 256.966 120.445 252.922C120.445 252.922 115.622 250.101 117.21 248.553C118.797 247.005 121.635 242.559 121.635 242.559C121.635 242.559 121.765 225.933 121.635 223.451C121.499 221.728 121.58 219.995 121.878 218.292C121.93 218.035 121.994 217.785 122.061 217.538C124.256 217.866 126.473 218.035 128.693 218.042C129.502 218.042 130.326 218.042 131.157 217.993C131.157 218.228 131.167 218.482 131.189 218.754C131.372 222.873 131.713 230.094 131.991 232.777C132.385 236.624 134.564 246.991 134.564 246.991C134.564 246.991 130.407 249.664 135.29 256.25C135.29 256.25 135.29 258.638 134.966 258.983C134.62 260.113 134.341 261.262 134.131 262.425C133.927 263.666 133.843 264.921 134.174 265.573C134.966 267.132 139.718 267.005 139.718 267.005L139.834 266.984C140.731 266.891 141.638 266.977 142.502 267.238C143.365 267.499 144.168 267.929 144.865 268.504C146.671 269.956 153.524 269.318 157.235 268.856C158.689 268.673 159.66 268.504 159.66 268.504C159.707 268.339 159.724 268.167 159.709 267.996C159.671 267.083 158.956 265.08 154.112 263.292C154.112 263.292 149.557 260.224 149.62 257.552H149.525H148.997C149.381 257.53 149.628 257.552 149.628 257.552C149.628 257.552 147.843 251.028 148.571 250.499C149.3 249.971 147.118 242.742 147.118 242.742C147.118 242.742 145.868 230.612 145.801 229.763C145.804 229.033 145.914 228.309 146.128 227.612L145.801 220.962C145.801 220.962 145.738 218.751 145.801 218.031C145.79 217.407 145.74 216.784 145.65 216.166C145.618 215.919 145.586 215.662 145.551 215.408C147.258 214.974 148.367 214.572 148.367 214.572L148.17 191.424C149.62 188.603 149.888 182.414 149.881 178.024C149.881 175.204 149.754 173.116 149.754 173.116L151.736 169.876C151.736 169.876 152.194 165.997 151.469 165.147C151.148 164.763 151.293 164.364 151.557 164.037C151.694 163.928 151.838 163.829 151.99 163.74C151.99 163.74 151.968 163.709 151.944 163.663C152.082 163.547 152.229 163.442 152.384 163.349C152.384 163.349 151.68 162.256 152.31 161.794C152.901 162.196 153.429 162.499 153.831 162.746C153.803 163.003 153.774 163.152 153.774 163.152L153.943 162.799C154.331 163.018 154.566 163.152 154.566 163.152C154.566 163.152 157.671 156.956 157.604 156.043C157.538 155.13 159.717 151.283 159.717 151.283C159.717 151.283 159.981 149.262 161.17 148.416C162.36 147.57 162.093 141.438 162.093 141.438C162.093 141.438 162.424 138.243 163.216 136.939C164.008 135.634 162.494 133.875 162.494 133.875ZM103.087 131.156L103.146 132.633C102.794 132.066 102.541 131.657 102.541 131.657L103.087 131.156Z" fill="url(#paint0_linear)"/>
<path d="M154.735 160.475L153.975 163.719C153.975 163.719 147.885 160.606 146.787 156.649C145.688 152.693 148.624 151.191 148.624 151.191L154.299 153.599L154.735 160.475Z" fill="white"/>
<path opacity="0.1" d="M154.735 160.475L153.975 163.719C153.975 163.719 147.885 160.606 146.787 156.649C145.688 152.693 148.624 151.191 148.624 151.191L154.299 153.599L154.735 160.475Z" fill="black"/>
<path d="M120.557 270.88C120.557 270.88 114.925 272.953 111.053 273.214C108.997 273.352 107.916 272.09 107.36 270.873C107.056 270.197 106.86 269.477 106.779 268.74L107.283 263.151L107.55 260.175L115.777 258.035L116.942 261.603L117.051 261.875C117.52 263.066 119.396 267.915 119.339 268.927C119.337 269.186 119.387 269.443 119.486 269.682C119.586 269.921 119.732 270.138 119.917 270.319C120.106 270.533 120.321 270.721 120.557 270.88V270.88Z" fill="white"/>
<path d="M159.03 268.038C159.044 268.208 159.027 268.379 158.981 268.542C158.981 268.542 146.935 270.556 144.47 268.542C143.776 267.954 142.966 267.518 142.093 267.262C141.22 267.005 140.303 266.935 139.401 267.054C139.401 267.054 134.74 267.181 133.963 265.644C133.639 264.999 133.723 263.747 133.924 262.513C134.128 261.356 134.401 260.213 134.74 259.089L134.927 258.941L136.036 258.049L149.019 257.664H149.117C149.054 260.323 153.524 263.373 153.524 263.373C158.273 265.136 158.974 267.128 159.03 268.038Z" fill="white"/>
<path opacity="0.1" d="M159.03 268.038C159.042 268.208 159.025 268.379 158.977 268.542C158.977 268.542 146.935 270.556 144.47 268.542C143.776 267.955 142.967 267.519 142.094 267.262C141.222 267.006 140.306 266.935 139.405 267.054C139.405 267.054 134.74 267.181 133.966 265.644C133.642 264.995 133.723 263.747 133.924 262.513C135.719 262.693 138.553 263.14 139.665 264.209C141.348 265.834 144.199 267.456 145.949 267.583C147.318 267.671 155.51 267.932 159.03 268.038Z" fill="black"/>
<path opacity="0.1" d="M120.557 270.88C120.557 270.88 114.925 272.954 111.053 273.214C108.997 273.352 107.916 272.09 107.364 270.87C108.796 271.353 110.785 271.86 111.831 271.395C113.07 270.845 117.463 270.489 119.927 270.337C120.115 270.543 120.326 270.725 120.557 270.88V270.88Z" fill="black"/>
<path d="M128.915 103.797C124.268 101.988 118.29 96.0115 119.783 93.2189C120.115 92.5141 120.312 91.7535 120.364 90.9763C120.46 89.9211 120.474 88.8601 120.406 87.8028C120.301 86.0712 120.093 84.3474 119.783 82.6406C119.783 82.6406 134.29 82.9686 133.445 85.1089C133.199 85.7365 133.16 86.8261 133.227 88.0461C133.294 89.2661 133.47 90.6448 133.653 91.812C133.906 93.4128 134.16 94.6328 134.16 94.6328C134.16 94.6328 133.273 95.8775 132.752 95.9445C132.231 96.0115 135.582 106.375 128.915 103.797Z" fill="#CF6F80"/>
<path opacity="0.1" d="M117.041 261.875L116.932 261.994C112.595 256.741 107.35 263.288 107.35 263.288L107.272 263.151L107.54 260.175L115.766 258.035L116.932 261.603L117.041 261.875Z" fill="black"/>
<path opacity="0.1" d="M149.121 258.035C149.121 258.035 145.952 257.968 144.263 259.463C142.573 260.958 134.406 259.787 134.758 259.463C134.862 259.302 134.925 259.118 134.941 258.927L136.05 258.035L149.033 257.65C149.082 257.887 149.121 258.035 149.121 258.035Z" fill="black"/>
<path d="M122.437 216.776C122.201 217.36 122.022 217.966 121.902 218.585C121.609 220.279 121.527 222.004 121.659 223.719C121.79 226.187 121.659 242.728 121.659 242.728C121.659 242.728 118.875 247.139 117.322 248.694C115.77 250.249 120.491 253.042 120.491 253.042C121.195 257.061 116.928 261.603 116.928 261.603C112.591 256.349 107.346 262.901 107.346 262.901C107.346 262.901 104.495 257.964 103.784 256.201C103.072 254.438 106.568 253.218 107.797 252.502C109.025 251.786 107.737 247.566 107.737 247.566C107.737 247.566 106.698 243.867 105.466 240.492C104.234 237.118 106.825 220.32 106.825 220.32C106.825 220.32 106.959 217.337 107.279 216.296C107.441 215.546 107.473 214.773 107.374 214.012C107.353 213.754 107.328 213.539 107.311 213.395C107.293 213.25 107.279 213.183 107.279 213.183L107.328 213.098L109.089 209.812C109.089 209.812 123.282 214.706 122.437 216.776Z" fill="#EFC8C4"/>
<path d="M149.121 257.647C149.121 257.647 145.952 257.58 144.263 259.057C142.573 260.535 134.406 259.382 134.758 259.057C135.11 258.733 135.082 256.332 135.082 256.332C130.291 249.78 134.378 247.121 134.378 247.121C134.378 247.121 132.238 236.808 131.85 232.982C131.579 230.309 131.245 223.126 131.065 219.026C130.988 217.263 130.942 216.05 130.942 216.05L134.857 215.26L135.36 215.158L144.801 213.26C144.801 213.26 145.062 215.024 145.238 216.466C145.326 217.081 145.375 217.702 145.386 218.324C145.322 219.029 145.386 221.236 145.386 221.236L145.706 227.855C145.497 228.549 145.389 229.27 145.386 229.995C145.449 230.838 146.678 242.904 146.678 242.904C146.678 242.904 148.814 250.104 148.086 250.623C147.357 251.141 149.121 257.647 149.121 257.647Z" fill="#EFC8C4"/>
<path opacity="0.1" d="M133.445 85.1089C133.199 85.7365 133.16 86.8261 133.227 88.0461C131.284 89.2182 129.05 89.8174 126.782 89.775C124.514 89.7326 122.304 89.0502 120.406 87.8063C120.302 86.0735 120.094 84.3485 119.783 82.6406C119.783 82.6406 134.29 82.9615 133.445 85.1089Z" fill="black"/>
<path d="M139.053 77.3163C139.056 78.5869 138.856 79.8498 138.461 81.0574C137.579 83.7632 135.771 86.0696 133.356 87.5689C130.94 89.0683 128.073 89.664 125.262 89.2509C122.45 88.8378 119.875 87.4424 117.991 85.3114C116.107 83.1804 115.036 80.4509 114.967 77.6054C114.967 77.5067 114.967 77.415 114.967 77.3163C114.94 75.7146 115.231 74.1235 115.824 72.6358C116.417 71.148 117.3 69.7935 118.421 68.6511C119.542 67.5087 120.88 66.6014 122.354 65.9821C123.829 65.3627 125.413 65.0438 127.012 65.0438C128.611 65.0438 130.194 65.3627 131.669 65.9821C133.144 66.6014 134.481 67.5087 135.602 68.6511C136.723 69.7935 137.606 71.148 138.199 72.6358C138.792 74.1235 139.084 75.7146 139.056 77.3163H139.053Z" fill="#CF6F80"/>
<path opacity="0.1" d="M128.915 103.797C124.268 101.988 118.29 96.0115 119.783 93.2188C120.115 92.5141 120.312 91.7535 120.364 90.9763L126.725 96.2125L130.661 99.4459L133.653 91.8155C133.906 93.4163 134.16 94.6363 134.16 94.6363C134.16 94.6363 133.273 95.881 132.752 95.948C132.231 96.015 135.582 106.375 128.915 103.797Z" fill="black"/>
<path d="M145.365 126.939L140.052 216.325L133.125 216.78L115.186 164.95L118.128 103.416L118.748 90.4156L126.725 96.9776L130.664 100.211L133.744 92.3584L139.472 97.3584L145.365 126.939Z" fill="#EFC8C4"/>
<path opacity="0.1" d="M122.437 216.776C122.201 217.36 122.022 217.966 121.902 218.585C116.861 217.805 111.965 216.273 107.378 214.04L107.283 213.99L107.314 213.423L107.332 213.127L109.092 209.84C109.092 209.84 123.282 214.706 122.437 216.776Z" fill="black"/>
<path opacity="0.1" d="M134.938 218.599C133.649 218.819 132.349 218.967 131.044 219.043C130.967 217.28 130.921 216.067 130.921 216.067L134.836 215.277L134.938 218.599Z" fill="black"/>
<path opacity="0.1" d="M145.217 216.483C142.714 217.136 138.849 217.869 135.388 217.411L135.339 215.175L144.78 213.278C144.78 213.278 145.041 215.024 145.217 216.483Z" fill="black"/>
<path opacity="0.1" d="M135.325 217.82C120.892 220.288 107.673 213.211 107.673 213.211L107.8 210.813C107.8 210.813 108.128 183.631 107.219 181.547C106.311 179.463 105.604 168.895 106.117 167.273C106.631 165.651 104.241 141.329 104.241 141.329L103.854 131.456L89.6815 125.705L96.0179 112.475C96.8738 110.62 97.6099 108.712 98.2216 106.762C99.3234 103.328 104.438 99.9536 104.438 99.9536C104.438 99.9536 109.683 96.5827 111.757 96.7096C113.83 96.8366 116.548 93.7266 116.548 93.7266C118.554 88.6032 120.371 90.9234 120.371 90.9234C120.371 91.1667 120.371 90.9234 120.272 91.6815C119.568 97.3056 131.657 115.077 131.829 115.391L132.98 143.48L134.146 179.026L135.325 217.82Z" fill="black"/>
<path d="M134.938 217.82C120.505 220.288 107.283 213.211 107.283 213.211L107.413 210.813C107.413 210.813 107.74 183.631 106.829 181.547C105.917 179.463 105.213 168.895 105.73 167.273C106.248 165.652 103.854 141.329 103.854 141.329L103.463 131.456L89.2837 125.683L95.6201 112.454C96.4741 110.598 97.2101 108.69 97.8238 106.741C98.9221 103.307 104.041 99.9325 104.041 99.9325C104.041 99.9325 109.286 96.5616 111.356 96.6885C113.425 96.8155 116.147 93.7055 116.147 93.7055C118.157 88.5821 120.371 90.9022 120.371 90.9022C120.371 91.1455 120.16 91.2548 120.272 91.6603C121.821 97.1152 131.27 115.056 131.442 115.37L132.607 143.458L133.772 179.005L134.938 217.82Z" fill="white"/>
<path opacity="0.1" d="M131.048 116.17C129.495 115.521 121.272 106.117 121.272 106.117V103.977C120.973 103.272 119.195 103.702 117.752 104.196L118.371 91.1949L119.075 91.7802C120.617 97.2315 130.868 115.856 131.048 116.17Z" fill="black"/>
<path d="M131.438 115.391C129.883 114.742 121.659 105.338 121.659 105.338V103.198C121.36 102.492 119.582 102.923 118.139 103.416L118.762 90.4156L119.466 91.001C121.012 96.4523 131.266 115.081 131.438 115.391Z" fill="white"/>
<path opacity="0.1" d="M107.673 162.291C107.867 162.291 117.71 161.254 117.71 161.254C117.71 161.254 123.669 172.993 123.279 175.849C122.888 178.705 122.18 181.233 119.783 180.785C117.386 180.338 106.881 181.138 106.881 181.138L107.673 162.291Z" fill="black"/>
<path d="M107.283 161.512C107.476 161.512 117.319 160.475 117.319 160.475C117.319 160.475 123.275 172.217 122.888 175.07C122.501 177.922 121.786 180.454 119.392 180.006C116.999 179.558 106.491 180.359 106.491 180.359L107.283 161.512Z" fill="white"/>
<path d="M114.7 156.001C114.7 156.001 123.733 160.863 123.926 162.348C124.12 163.832 119.329 161.699 118.294 161.441C117.613 161.277 116.919 161.168 116.221 161.117L109.317 161.304L114.7 156.001Z" fill="#CF6F80"/>
<path opacity="0.1" d="M128.527 116.777C129.052 116.777 129.478 116.35 129.478 115.824C129.478 115.299 129.052 114.872 128.527 114.872C128.002 114.872 127.577 115.299 127.577 115.824C127.577 116.35 128.002 116.777 128.527 116.777Z" fill="black"/>
<path d="M128.527 116.389C129.052 116.389 129.478 115.962 129.478 115.437C129.478 114.911 129.052 114.485 128.527 114.485C128.002 114.485 127.577 114.911 127.577 115.437C127.577 115.962 128.002 116.389 128.527 116.389Z" fill="#3F3D56"/>
<path opacity="0.1" d="M130.277 157.989C130.802 157.989 131.227 157.563 131.227 157.037C131.227 156.511 130.802 156.085 130.277 156.085C129.752 156.085 129.326 156.511 129.326 157.037C129.326 157.563 129.752 157.989 130.277 157.989Z" fill="black"/>
<path d="M130.277 157.598C130.802 157.598 131.227 157.172 131.227 156.646C131.227 156.12 130.802 155.694 130.277 155.694C129.752 155.694 129.326 156.12 129.326 156.646C129.326 157.172 129.752 157.598 130.277 157.598Z" fill="#3F3D56"/>
<path opacity="0.1" d="M129.474 137.383C129.999 137.383 130.425 136.957 130.425 136.431C130.425 135.905 129.999 135.479 129.474 135.479C128.949 135.479 128.524 135.905 128.524 136.431C128.524 136.957 128.949 137.383 129.474 137.383Z" fill="black"/>
<path d="M129.474 136.995C129.999 136.995 130.425 136.569 130.425 136.043C130.425 135.517 129.999 135.091 129.474 135.091C128.949 135.091 128.524 135.517 128.524 136.043C128.524 136.569 128.949 136.995 129.474 136.995Z" fill="#3F3D56"/>
<path d="M151.384 160.919C151.384 160.919 152.032 161.893 151.384 162.348C150.736 162.802 151.447 163.903 151.447 163.903C151.447 163.903 149.832 164.851 150.543 165.704C151.254 166.558 150.803 170.412 150.803 170.412L148.86 173.635C148.86 173.635 148.976 175.711 148.983 178.518C148.983 182.898 148.726 189.054 147.304 191.861L147.501 214.89C147.501 214.89 140.697 217.379 135.001 216.621L134.156 179.668C134.156 179.668 135.388 158.712 135.842 154.692C136.108 152.606 136.216 150.502 136.166 148.398C136.166 148.398 135.973 142.108 135.321 139.188C135.321 139.188 134.617 126.54 134.547 123.039C134.515 121.364 134.603 116.477 134.702 111.829C134.811 106.748 134.934 101.956 134.934 101.956L133.649 91.7732C133.649 91.7732 134.934 91.6427 135.321 92.161C135.495 92.3233 135.683 92.4686 135.885 92.5948V92.5948C138.102 94.0969 145.938 98.716 145.938 98.716C145.938 98.716 150.275 100.444 151.314 102.919C152.352 105.394 153.074 107.15 153.577 107.856C154.081 108.561 154.355 111.875 154.355 111.875C154.355 111.875 155.848 117.975 157.013 119.009C158.178 120.042 159.03 126.614 159.03 126.614L148.733 134.724C148.733 134.724 147.829 148.215 147.635 148.737C147.441 149.259 151.384 160.919 151.384 160.919Z" fill="white"/>
<path d="M151.775 160.919C151.775 160.919 152.419 161.893 151.775 162.348C151.131 162.802 151.835 163.903 151.835 163.903C151.835 163.903 150.229 164.862 150.934 165.715C151.638 166.568 151.194 170.422 151.194 170.422L149.251 173.645C149.251 173.645 149.367 175.722 149.378 178.529C149.378 182.908 149.121 189.065 147.698 191.871L147.892 214.9C147.892 214.9 141.077 217.39 135.388 216.631L134.547 179.678C134.547 179.678 135.779 158.723 136.233 154.703C136.499 152.616 136.606 150.512 136.553 148.409C136.553 148.409 136.36 142.118 135.712 139.199C135.712 139.199 135.008 126.551 134.934 123.049C134.902 121.375 134.994 116.487 135.089 111.84C135.198 106.759 135.321 101.967 135.321 101.967L133.625 91.6462C133.625 91.6462 135.321 91.6462 135.712 92.1716C135.884 92.3358 136.073 92.4812 136.275 92.6053C138.493 94.1074 146.333 98.7265 146.333 98.7265C146.333 98.7265 150.666 100.454 151.704 102.93C152.743 105.405 153.465 107.161 153.971 107.866C154.478 108.571 154.746 111.886 154.746 111.886C154.746 111.886 156.239 117.986 157.404 119.019C158.569 120.052 159.41 126.611 159.41 126.611L149.114 134.721C149.114 134.721 148.209 148.211 148.012 148.733C147.815 149.255 151.775 160.919 151.775 160.919Z" fill="white"/>
<path opacity="0.1" d="M139.444 104.961L140.373 107.676L135.48 112.612C135.589 107.535 135.712 102.739 135.712 102.739L134.015 92.4185C134.015 92.4185 135.712 92.4185 136.103 92.9438C136.274 93.1076 136.463 93.2519 136.666 93.374L140.827 105.398L139.444 104.961Z" fill="black"/>
<path d="M139.053 104.181L139.986 106.897L135.092 111.833C135.202 106.752 135.325 101.96 135.325 101.96L133.625 91.6392C133.625 91.6392 135.325 91.6392 135.712 92.1646C135.885 92.3278 136.073 92.4731 136.275 92.5983L140.44 104.619L139.053 104.181Z" fill="white"/>
<path opacity="0.1" d="M139.053 77.3163C139.056 78.5869 138.856 79.8498 138.461 81.0574C138.395 81.0678 138.327 81.0648 138.262 81.0484C138.196 81.0321 138.135 81.0027 138.081 80.9622C137.99 77.7888 136.43 74.8092 134.512 72.274C133.973 71.5085 133.32 70.8306 132.576 70.2641C131.823 69.6979 130.887 69.4326 129.949 69.5201C128.893 69.6647 127.961 70.384 126.894 70.4757C125.486 70.592 124.226 69.6153 122.828 69.5659C122.26 69.5713 121.699 69.6981 121.184 69.9376C120.669 70.1772 120.21 70.5241 119.839 70.9552C119.105 71.8252 118.56 72.8387 118.238 73.9312C117.684 75.5879 117.383 77.3186 117.343 79.0652C117.326 80.0525 117.231 81.2902 116.316 81.6498C116.384 80.9237 116.302 80.1912 116.074 79.4986C115.845 78.8061 115.476 78.1686 114.988 77.6266L114.967 77.6054C114.967 77.5067 114.967 77.415 114.967 77.3163C114.94 75.7146 115.231 74.1235 115.824 72.6358C116.417 71.148 117.3 69.7935 118.421 68.6511C119.542 67.5087 120.88 66.6014 122.354 65.9821C123.829 65.3627 125.413 65.0438 127.012 65.0438C128.611 65.0438 130.194 65.3627 131.669 65.9821C133.144 66.6014 134.481 67.5087 135.602 68.6511C136.723 69.7935 137.606 71.148 138.199 72.6358C138.792 74.1235 139.084 75.7146 139.056 77.3163H139.053Z" fill="black"/>
<path d="M131.998 58.1591C130.169 57.2972 128.088 57.1341 126.148 57.7007C125.173 57.9898 124.254 58.4588 123.265 58.695C121.152 59.2063 118.688 58.6527 116.875 59.8904C115.869 60.5956 115.263 61.7098 114.7 62.7923L113.292 65.4792C112.524 66.9496 111.75 68.4446 111.43 70.0631C111.109 71.6816 111.303 73.494 112.327 74.7951C113.073 75.7436 114.175 76.3395 114.985 77.2316C115.47 77.7742 115.838 78.4114 116.066 79.1031C116.293 79.7948 116.376 80.5261 116.309 81.2513C117.227 80.8987 117.315 79.6575 117.336 78.6702C117.376 76.9237 117.677 75.193 118.231 73.5363C118.552 72.4434 119.097 71.4298 119.832 70.5603C120.204 70.1295 120.662 69.7828 121.177 69.5433C121.693 69.3038 122.253 69.1768 122.821 69.171C124.229 69.2204 125.493 70.1936 126.887 70.0772C127.943 69.989 128.879 69.2662 129.942 69.1252C130.88 69.0363 131.816 69.3017 132.569 69.8692C133.313 70.4348 133.965 71.1128 134.501 71.879C136.423 74.4143 137.983 77.3868 138.074 80.5673C138.472 80.8599 139.046 80.4791 139.243 80.0278C139.44 79.5764 139.447 79.0475 139.697 78.6174C139.986 78.1202 140.538 77.8557 140.971 77.482C142.07 76.5334 142.344 74.9361 142.302 73.4869C142.26 72.0377 141.978 70.5673 142.253 69.1428C142.418 68.2683 142.791 67.4503 142.995 66.5864C143.2 65.7225 143.224 64.7528 142.742 64.0088C142.038 62.9157 140.556 62.7006 139.264 62.5984C137.796 62.4714 136.483 62.6336 135.547 61.396C135.107 60.7501 134.612 60.1437 134.068 59.5836C133.882 59.4002 131.998 58.2366 131.998 58.1591Z" fill="#512E4E"/>
<path opacity="0.1" d="M93.7368 132.517L90.0581 125.705L88.8929 136.216C88.8929 136.216 89.5407 140.884 89.4104 141.6C89.2802 142.316 92.0647 148.733 92.0647 148.733C92.0647 148.733 101.263 165.144 105.019 165.99L117.71 156.907L114.344 152.626C114.344 152.626 113.179 152.171 112.887 152.626C112.887 152.626 106.638 141.858 105.991 141.078C105.343 140.299 105.47 138.744 105.47 138.744C105.47 138.744 104.498 137.707 104.822 136.734C105.146 135.761 102.946 132.386 102.946 132.386L104.952 130.507L93.7368 132.517Z" fill="black"/>
<path d="M90.2518 124.929L89.2802 125.705L88.115 136.216C88.115 136.216 88.7627 140.884 88.6325 141.6C88.5022 142.316 91.2902 148.733 91.2902 148.733C91.2902 148.733 100.485 165.144 104.241 165.99L116.935 156.907L113.566 152.626C113.566 152.626 112.401 152.171 112.109 152.626C112.109 152.626 105.86 141.858 105.213 141.078C104.565 140.299 104.695 138.744 104.695 138.744C104.695 138.744 103.724 137.707 104.048 136.734C104.371 135.761 102.168 132.386 102.168 132.386L104.174 130.507L90.2518 124.929Z" fill="white"/>
<path opacity="0.1" d="M150.543 166.106C151.247 166.963 150.803 170.81 150.803 170.81L148.86 174.033C148.86 174.033 148.976 176.113 148.983 178.917L145.717 179.939C145.421 180.032 145.108 180.052 144.804 179.998C144.499 179.945 144.212 179.819 143.965 179.632C143.719 179.445 143.521 179.201 143.388 178.921C143.255 178.642 143.19 178.334 143.2 178.025L143.763 159.826L151.384 162.746C150.736 163.197 151.448 164.305 151.448 164.305C151.448 164.305 149.832 165.25 150.543 166.106Z" fill="black"/>
<path d="M150.934 165.715C151.638 166.572 151.194 170.422 151.194 170.422L149.251 173.645C149.251 173.645 149.367 175.722 149.378 178.529L146.051 179.569C145.762 179.659 145.455 179.678 145.157 179.626C144.859 179.573 144.578 179.45 144.337 179.267C144.096 179.083 143.902 178.845 143.771 178.571C143.641 178.297 143.578 177.996 143.587 177.693L144.154 159.439L151.778 162.358C151.127 162.809 151.838 163.913 151.838 163.913C151.838 163.913 150.229 164.862 150.934 165.715Z" fill="white"/>
<path d="M153.458 157.041C153.458 157.041 152.94 160.352 151.645 160.546C150.349 160.74 149.768 165.902 148.477 165.718C147.185 165.535 148.04 160.92 148.086 160.024C148.132 159.128 146.678 155.419 147.765 154.576C148.853 153.733 152.296 154.576 152.296 154.576L153.458 157.041Z" fill="#CF6F80"/>
<path opacity="0.1" d="M156.214 131.544L158.657 126.607C158.657 126.607 159.629 130.37 159.629 132.379C159.629 134.389 160.987 134.587 160.987 134.587C160.987 134.587 162.476 136.35 161.691 137.633C160.906 138.917 160.59 142.111 160.59 142.111C160.59 142.111 160.847 148.208 159.681 149.051C158.516 149.893 158.273 151.907 158.273 151.907C158.273 151.907 156.133 155.733 156.2 156.642C156.267 157.552 153.222 163.712 153.222 163.712C153.222 163.712 154.711 156.057 146.033 152.75C146.033 152.75 145.967 150.151 146.614 149.439C147.262 148.726 148.272 148.402 147.639 144.802C147.005 141.202 147.456 136.9 147.456 136.036C147.456 135.172 149.399 129.784 149.399 129.784L156.214 131.544Z" fill="black"/>
<path d="M157.27 125.902L159.403 126.607C159.403 126.607 160.378 130.37 160.378 132.379C160.378 134.389 161.737 134.587 161.737 134.587C161.737 134.587 163.226 136.35 162.441 137.633C161.656 138.917 161.343 142.111 161.343 142.111C161.343 142.111 161.6 148.208 160.435 149.051C159.269 149.893 159.009 151.907 159.009 151.907C159.009 151.907 156.872 155.733 156.939 156.642C157.006 157.552 153.957 163.712 153.957 163.712C153.957 163.712 155.45 156.057 146.769 152.75C146.769 152.75 146.706 150.151 147.354 149.439C148.001 148.726 149.012 148.402 148.378 144.802C147.744 141.202 148.195 136.9 148.195 136.036C148.195 135.172 150.138 129.784 150.138 129.784L157.27 125.902Z" fill="white"/>
<path opacity="0.1" d="M110.152 253.853C110.152 253.853 113.552 251.712 115.784 253.267C118.016 254.822 110.152 253.853 110.152 253.853Z" fill="black"/>
<path opacity="0.1" d="M136.574 247.234C136.574 247.234 139.584 246.846 142.112 249.572C144.639 252.298 136.574 247.234 136.574 247.234Z" fill="black"/>
<g opacity="0.1">
<path opacity="0.1" d="M140.978 76.7098C140.545 77.0835 139.989 77.3515 139.7 77.8487C139.454 78.2753 139.447 78.8007 139.25 79.2591C139.053 79.7175 138.479 80.0913 138.081 79.8021C137.99 76.6287 136.427 73.6491 134.508 71.1104C133.972 70.3442 133.32 69.6661 132.575 69.1005C131.822 68.5331 130.884 68.2678 129.946 68.3565C128.89 68.5011 127.96 69.2204 126.894 69.3085C125.486 69.4284 124.222 68.4517 122.824 68.4023C122.256 68.408 121.696 68.5352 121.181 68.7754C120.667 69.0156 120.209 69.3633 119.839 69.7951C119.104 70.6633 118.559 71.6758 118.238 72.7676C117.684 74.4244 117.383 76.155 117.343 77.9016C117.322 78.8853 117.231 80.1124 116.323 80.4791C116.344 80.7396 116.344 81.0014 116.323 81.2619C117.238 80.9093 117.329 79.6681 117.35 78.6808C117.39 76.9343 117.691 75.2036 118.245 73.5469C118.566 72.454 119.111 71.4404 119.846 70.5709C120.217 70.1402 120.675 69.7936 121.189 69.554C121.704 69.3145 122.264 69.1875 122.831 69.1816C124.24 69.231 125.507 70.2042 126.901 70.0878C127.957 69.9996 128.893 69.2768 129.953 69.1358C130.891 69.047 131.829 69.3124 132.582 69.8798C133.327 70.4454 133.979 71.1234 134.515 71.8896C136.434 74.4249 137.997 77.3973 138.088 80.5779C138.486 80.8705 139.06 80.4897 139.257 80.0384C139.454 79.587 139.461 79.0581 139.707 78.6279C139.996 78.1308 140.552 77.8663 140.985 77.4925C142.084 76.544 142.358 74.9467 142.316 73.4975C142.316 73.4517 142.316 73.4058 142.316 73.3635C142.249 74.6188 141.915 75.8988 140.978 76.7098Z" fill="black"/>
<path opacity="0.1" d="M114.992 76.4594C114.182 75.5673 113.077 74.9714 112.334 74.0264C111.709 73.1899 111.352 72.1828 111.31 71.1385C111.199 72.4435 111.563 73.7446 112.334 74.8021C113.077 75.7507 114.182 76.3466 114.992 77.2387C115.769 78.1113 116.236 79.2174 116.319 80.3839C116.373 79.674 116.283 78.9604 116.055 78.2861C115.827 77.6117 115.465 76.9904 114.992 76.4594V76.4594Z" fill="black"/>
<path opacity="0.1" d="M143.002 65.8142C142.795 66.6781 142.425 67.4997 142.256 68.3706C142.156 68.9526 142.12 69.5437 142.147 70.1336C142.159 69.7976 142.195 69.4629 142.256 69.1322C142.425 68.2578 142.795 67.4397 143.002 66.5758C143.124 66.0993 143.163 65.6057 143.119 65.116C143.097 65.3512 143.058 65.5846 143.002 65.8142V65.8142Z" fill="black"/>
</g>
<path opacity="0.1" d="M46.724 268.19C65.668 268.19 81.0252 265.719 81.0252 262.671C81.0252 259.624 65.668 257.153 46.724 257.153C27.78 257.153 12.4229 259.624 12.4229 262.671C12.4229 265.719 27.78 268.19 46.724 268.19Z" fill="#EFC8C4"/>
<path d="M47.8294 156.96H45.6222V206.737H47.8294V156.96Z" fill="#535461"/>
<path d="M61.6992 206.586L61.5619 208.828L61.3648 212.002L61.2838 213.32L61.0902 216.494L61.0057 217.813L60.8086 220.986L58.5838 256.977C58.4871 258.525 57.8049 259.979 56.6762 261.041C55.5474 262.104 54.0568 262.696 52.5079 262.696H40.9404C39.3918 262.696 37.9016 262.104 36.7734 261.041C35.6452 259.978 34.9638 258.525 34.868 256.977L32.6537 220.962L32.4566 217.788L32.3756 216.469L32.1785 213.296L32.0975 211.977L31.9004 208.804L31.7596 206.561C31.7351 206.129 31.799 205.697 31.9472 205.291C32.0955 204.885 32.3249 204.514 32.6216 204.2C32.9183 203.886 33.2759 203.636 33.6724 203.465C34.069 203.295 34.4962 203.207 34.9278 203.208H58.5873C59.0173 203.211 59.4419 203.303 59.8351 203.478C60.2282 203.652 60.5815 203.906 60.8731 204.222C61.1647 204.539 61.3884 204.912 61.5305 205.318C61.6726 205.725 61.73 206.156 61.6992 206.586V206.586Z" fill="#3F3D56"/>
<path d="M61.5619 208.828L61.3648 211.991H32.0835L31.8864 208.828H61.5619Z" fill="#9D9CB5"/>
<path d="M61.2838 213.31L61.0902 216.476H32.3616L32.1644 213.31H61.2838Z" fill="#9D9CB5"/>
<path d="M61.0057 217.799L60.8121 220.962H32.6396L32.4425 217.799H61.0057Z" fill="#9D9CB5"/>
<path d="M28.5175 175.616C41.3698 184.932 46.7347 199.502 46.7347 199.502C46.7347 199.502 31.2456 198.969 18.3897 189.653C5.53384 180.338 0.179565 165.771 0.179565 165.771C0.179565 165.771 15.6616 166.3 28.5175 175.616Z" fill="#EFC8C4"/>
<path d="M0.168945 165.771C0.168945 165.771 16.2494 174.71 21.4065 182.111C26.5637 189.512 46.7346 199.502 46.7346 199.502" stroke="#535461" stroke-width="2" stroke-miterlimit="10"/>
<path d="M36.8146 156.85C43.8093 161.917 46.7346 169.848 46.7346 169.848C46.7346 169.848 38.3036 169.558 31.3054 164.491C24.3072 159.424 21.3889 151.491 21.3889 151.491C21.3889 151.491 29.8164 151.78 36.8146 156.85Z" fill="#EFC8C4"/>
<path d="M21.3889 151.491C21.3889 151.491 30.1402 156.357 32.9458 160.384C35.7515 164.41 46.7346 169.848 46.7346 169.848" stroke="#535461" stroke-width="2" stroke-miterlimit="10"/>
<path d="M56.8905 169.446C48.8538 178.292 47.1536 189.854 47.1536 189.854C47.1536 189.854 58.4852 187.069 66.5149 178.218C74.5445 169.368 76.2518 157.809 76.2518 157.809C76.2518 157.809 64.9272 160.599 56.8905 169.446Z" fill="#EFC8C4"/>
<path d="M76.2589 157.813C76.2589 157.813 65.7897 166.882 63.1284 173.13C60.4671 179.378 47.1536 189.854 47.1536 189.854" stroke="#535461" stroke-width="2" stroke-miterlimit="10"/>
<path d="M351.907 166.332C351.907 166.332 346.095 137.369 348.32 133.765C348.32 133.765 348.401 130.415 348.267 126.145C348.267 125.983 348.267 125.821 348.267 125.655C348.659 125.917 349.067 126.152 349.489 126.36C351.539 127.415 353.892 127.72 356.142 127.221L354.382 125.257C353.96 124.788 353.52 124.28 353.428 123.659C353.337 123.039 353.59 122.485 353.808 121.932C355.48 117.7 355.568 112.38 352.347 109.15C349.626 106.435 348.964 102.93 346.011 100.451C343.853 98.6349 342.667 95.9727 341.547 93.3987C340.6 91.2231 339.646 89.0299 339.104 86.7238C338.682 84.922 338.513 83.0567 337.932 81.2972C337.351 79.5377 336.263 77.8275 334.563 77.0412C333.958 76.7626 333.285 76.604 332.733 76.2337C332.007 75.7436 331.571 74.9467 331.046 74.2486C328.382 70.7225 319.458 72.7993 315.234 74.2309C314.085 74.5914 313.022 75.1816 312.108 75.9658L312.146 75.9023C312.178 75.8494 312.217 75.7965 312.252 75.7436C311.79 76.1181 311.39 76.5646 311.069 77.0659C310.453 78.0426 310.196 79.1815 309.682 80.2394C309.063 81.4911 305.616 84.9855 307.098 86.3924C307.202 86.4868 307.321 86.5631 307.45 86.618C308.007 86.85 308.619 86.9113 309.21 86.7943L309.147 86.946C308.641 88.1872 308.381 89.5155 308.383 90.8564C308.383 96.6497 313.153 101.346 319.042 101.346C320.15 101.348 321.25 101.177 322.306 100.842C322.33 100.976 322.351 101.11 322.376 101.244C322.376 101.297 322.394 101.35 322.401 101.403L322.214 101.664C322.205 101.648 322.194 101.632 322.182 101.618L316.656 109.354C315.811 109.95 310.946 113.476 310.671 116.121C310.383 119.016 310.094 122.404 310.094 122.404L310.055 123.131C309.814 123.333 309.531 123.48 309.227 123.562C308.924 123.644 308.605 123.659 308.295 123.607C306.57 123.324 306.57 129.953 306.57 129.953C306.57 129.953 305.423 131.011 304.634 130.095C303.846 129.178 301.762 132.284 301.762 132.284L288.702 132.848L288.402 132.866L287.698 130.683C287.622 130.453 287.459 130.262 287.244 130.152C287.028 130.042 286.778 130.021 286.547 130.095C286.493 130.113 286.44 130.135 286.389 130.162L286.339 130.19L286.248 130.253L286.202 130.296C286.177 130.318 286.153 130.343 286.132 130.37L286.09 130.419L286.068 130.44C285.987 130.553 285.933 130.683 285.911 130.82C285.889 130.957 285.9 131.098 285.942 131.23L286.547 133.102C284.027 133.61 281.45 135.042 283.551 138.984L272.899 137.013L276.345 139.911L294.137 143.589C293.901 144.012 294.056 144.625 294.792 145.489C297.96 149.216 303.733 150.228 306.056 150.489C306.67 151.864 307.436 153.165 308.341 154.368L308.14 158.081C308.14 158.081 302.258 186.381 301.181 187.816C301.725 187.199 302.222 186.543 302.67 185.852C300.962 191.667 298.576 199.625 297.949 200.817C296.942 202.721 296.01 210.426 297.157 210.919C297.509 211.071 298.516 210.997 299.952 210.887V211.526L299.889 235.711C299.889 235.711 300.177 250.545 299.385 251.959C298.593 253.373 298.382 256.339 298.382 256.339C298.382 256.339 295.214 262.188 292.704 264.54C292.687 264.559 292.668 264.575 292.648 264.59L292.57 264.04C292.57 264.04 289.553 267.855 282.879 267.64C282.879 267.64 278.862 270.256 284.819 270.397C290.775 270.538 298.382 270.185 298.382 270.185C298.382 270.185 303.694 262.076 308.144 263.133V269.279H309.506V263.035C310.138 262.618 310.679 262.077 311.096 261.445C311.512 260.813 311.797 260.102 311.932 259.357C312.048 258.588 311.963 257.803 311.684 257.077C311.405 256.352 310.942 255.712 310.34 255.221C310.07 254.976 309.854 254.678 309.704 254.346C309.554 254.013 309.475 253.653 309.471 253.289L309.422 253.331C309.422 253.207 309.39 253.08 309.376 252.95C308.985 249.777 308.496 243.229 310.224 238.384C312.593 231.741 313.311 222.488 311.587 216.981C311.03 215.22 310.573 213.429 310.217 211.617C310.175 211.388 310.136 211.17 310.101 210.965C311.28 211.125 312.448 211.36 313.597 211.67C317.592 212.774 326.333 212.978 333.796 212.918C333.813 213.123 333.834 213.338 333.859 213.553C333.992 215.048 334.27 216.527 334.69 217.968C335.626 220.789 336.056 233.225 336.056 233.225C336.056 233.225 337.263 243.451 336.605 247.612C336.253 249.925 335.901 252.248 335.7 254.583V254.628C335.7 254.628 333.722 260.27 332.275 263.334C332.24 263.412 332.201 263.489 332.166 263.564C331.78 263.599 331.4 263.683 331.036 263.814C331.036 263.814 329.096 267.693 327.164 268.334C325.231 268.976 325.872 271.088 330.247 270.312C334.623 269.537 341.23 268.902 341.23 268.902L341.516 264.946L342.86 263.26L342.508 267.206L343.941 266.924L343.751 262.125L345.951 259.367C345.951 259.367 348.609 256.998 344.659 252.336V252.439C344.617 252.372 344.578 252.301 344.532 252.234V252.213C343.878 251.198 343.357 249.304 344.311 245.944C346.036 239.872 347.039 234.361 347.039 234.361C347.039 234.361 350.89 219.597 346.261 212.612H346.465C345.991 211.629 345.655 210.584 345.469 209.509C345.445 209.382 345.424 209.251 345.405 209.117C348.831 208.92 352.192 208.299 354.935 206.959C354.924 206.945 353.273 171.91 351.907 166.332ZM308.422 141.896V141.967L307.718 142.002L308.422 141.896ZM306.007 142.231C305.891 142.257 305.783 142.309 305.69 142.383C305.388 142.812 305.197 143.31 305.137 143.832L304.039 143.585C304.039 143.585 303.268 143.42 302.159 143.233L301.635 142.704C303.078 142.584 304.578 142.408 306.007 142.231V142.231Z" fill="url(#paint1_linear)"/>
<path d="M342.346 262.174L341.927 267.171L343.332 266.889L343.121 261.469L342.346 262.174Z" fill="#1D2366"/>
<path d="M310.302 238.451C308.608 243.282 309.087 249.801 309.467 252.968C309.608 254.138 309.738 254.851 309.738 254.851C309.738 254.851 307.207 260.626 306.996 260.845C306.785 261.064 299.547 265.489 299.547 265.489L294.489 268.447C294.489 268.447 289.356 266.194 291.817 265.418C292.32 265.216 292.772 264.907 293.144 264.512C295.608 262.167 298.702 256.339 298.702 256.339C298.702 256.339 298.914 253.38 299.688 251.973C300.463 250.566 300.181 235.782 300.181 235.782L300.241 211.681V208.539L309.869 208.61C309.929 209.676 310.068 210.737 310.284 211.783C310.63 213.589 311.077 215.374 311.625 217.129C313.322 222.626 312.618 231.832 310.302 238.451Z" fill="#FFB0B1"/>
<path opacity="0.1" d="M309.738 254.851C309.738 254.851 307.207 260.626 306.996 260.845C306.785 261.064 299.547 265.489 299.547 265.489L294.489 268.447C294.489 268.447 289.356 266.194 291.817 265.418C292.32 265.216 292.772 264.907 293.144 264.512L293.362 266.053L295.048 265.982L309.481 252.975C309.608 254.138 309.738 254.851 309.738 254.851Z" fill="black"/>
<path d="M309.562 253.303L295.048 266.398L293.362 266.469L293.01 264.001C293.01 264.001 290.06 267.802 283.506 267.59C283.506 267.59 279.57 270.196 285.403 270.337C291.236 270.478 298.685 270.126 298.685 270.126C298.685 270.126 303.888 262.016 308.242 263.073V269.198H309.58V263.017C310.202 262.598 310.733 262.057 311.141 261.426C311.548 260.796 311.824 260.09 311.953 259.35C312.068 258.588 311.986 257.808 311.715 257.087C311.443 256.366 310.99 255.727 310.4 255.231C310.137 254.984 309.927 254.685 309.782 254.354C309.638 254.022 309.564 253.664 309.562 253.303V253.303Z" fill="#1D2366"/>
<path d="M343.684 245.983C342.748 249.332 343.258 251.219 343.899 252.231V252.252C344.72 253.501 345.292 254.899 345.581 256.367L345.638 256.684L339.034 266.328L335.45 267.738C335.45 267.738 329.688 265.767 330.74 265.203C331.004 265.066 331.416 264.332 331.888 263.32C333.296 260.27 335.239 254.643 335.239 254.643V254.597C335.443 252.273 335.767 249.956 336.126 247.65C336.77 243.5 335.587 233.313 335.587 233.313C335.587 233.313 335.165 220.926 334.25 218.109C333.837 216.676 333.562 215.208 333.43 213.722C333.239 211.959 333.197 210.507 333.197 210.507C333.197 210.507 336.992 205.218 343.948 210.93C344.504 211.385 344.994 211.917 345.402 212.509C350.207 219.357 346.338 234.442 346.338 234.442C346.338 234.442 345.37 239.928 343.684 245.983Z" fill="#FFB0B1"/>
<path opacity="0.1" d="M345.648 256.684L339.044 266.328L335.461 267.738C335.461 267.738 329.698 265.767 330.751 265.203C331.015 265.066 331.427 264.332 331.898 263.32C334.338 263.299 335.602 265.626 335.602 265.626L338.692 265.133C338.692 265.133 342.769 257.107 343.684 256.617C344.599 256.127 343.825 252.954 343.825 252.954V252.146C343.85 252.174 343.871 252.206 343.899 252.234V252.255C344.721 253.505 345.292 254.902 345.581 256.37L345.648 256.684Z" fill="black"/>
<path d="M335.813 265.834C335.813 265.834 334.053 262.597 330.68 263.793C330.68 263.793 328.783 267.671 326.885 268.299C324.988 268.927 325.622 271.042 329.909 270.27C334.197 269.498 340.66 268.86 340.66 268.86L340.942 264.914L345.3 259.353C345.3 259.353 347.898 256.994 344.033 252.351V253.158C344.033 253.158 344.807 256.332 343.892 256.822C342.976 257.312 338.914 265.341 338.914 265.341L335.813 265.834Z" fill="#1D2366"/>
<path opacity="0.1" d="M309.879 208.603C309.94 209.669 310.079 210.73 310.295 211.776C306.331 211.194 302.652 211.483 300.241 211.674V208.532L309.879 208.603Z" fill="black"/>
<path opacity="0.1" d="M345.793 213.387C345.793 213.387 340.16 213.663 333.444 213.719C333.254 211.956 333.211 210.503 333.211 210.503C333.211 210.503 337.006 205.214 343.962 210.926C344.518 211.382 345.008 211.914 345.416 212.506C345.525 212.807 345.651 213.101 345.793 213.387V213.387Z" fill="black"/>
<path d="M345.793 212.753C345.793 212.753 321.123 213.948 313.604 211.836C306.084 209.724 298.632 211.554 297.509 211.064C296.386 210.574 297.298 202.897 298.284 200.997C299.269 199.096 304.676 179.876 304.676 179.876L309.879 152.704L315.36 151.191L315.747 151.082L325.298 148.444L332.296 146.508C332.296 146.508 346.212 200.926 345.018 204.939C344.585 206.476 344.515 208.092 344.814 209.66C344.996 210.731 345.326 211.772 345.793 212.753V212.753Z" fill="#1D2366"/>
<path d="M291.743 134.121C291.743 134.121 286.815 139.41 290.546 142.358C294.277 145.306 296.731 142.64 296.731 142.64L291.743 134.121Z" fill="#C7DAF5"/>
<path opacity="0.1" d="M291.743 134.121C291.743 134.121 286.815 139.41 290.546 142.358C294.277 145.306 296.731 142.64 296.731 142.64L291.743 134.121Z" fill="black"/>
<path d="M331.56 99.3471C331.56 99.3471 330.983 99.8972 330.113 100.708C328.874 101.868 327.04 103.564 325.414 104.985C323.161 106.949 321.302 108.392 321.968 107.161C322.633 105.93 322.506 103.786 322.175 101.78C322.151 101.646 322.13 101.512 322.105 101.382C321.831 99.9082 321.468 98.4527 321.017 97.0234C321.017 97.0234 324.657 92.3126 326.671 90.4544C327.421 89.7491 327.945 89.46 327.977 89.9501C328.012 90.6095 328.505 92.0658 329.117 93.6102C329.135 93.6596 329.152 93.7054 329.174 93.7548C329.582 94.8126 330.043 95.8986 330.448 96.8366C331.067 98.2752 331.56 99.3471 331.56 99.3471Z" fill="#FFB0B1"/>
<path opacity="0.1" d="M329.174 93.7548C328.832 95.5976 328.002 97.3147 326.771 98.7264C325.539 100.138 323.952 101.193 322.175 101.78C321.895 100.171 321.509 98.5814 321.017 97.0234C321.017 97.0234 327.871 88.1554 327.977 89.9501C328.001 90.6307 328.536 92.1398 329.174 93.7548Z" fill="black"/>
<path opacity="0.1" d="M321.493 104.15L322.38 102.898C322.38 102.898 322.968 106.487 325.129 104.904C327.29 103.321 327.396 116.819 327.396 116.819L325.076 151.561L308.313 150.556L308.788 133.769L310.685 125.306L315.378 113.004L318.169 108.938L321.493 104.15Z" fill="black"/>
<path d="M327.396 117.034L325.284 148.448L325.062 151.776L315.716 151.216L315.364 151.195L308.323 150.771L308.798 133.98L310.696 125.518L315.388 113.215L318.18 109.15L321.503 104.344L322.39 103.095C322.39 103.095 322.978 106.685 325.139 105.102L325.185 105.07C327.297 103.73 327.396 117.034 327.396 117.034Z" fill="#1D2366"/>
<path d="M310.932 122.577C310.932 122.577 310.09 124.34 308.401 124.054C306.711 123.769 306.715 130.401 306.715 130.401C306.715 130.401 305.592 131.459 304.817 130.542C304.043 129.626 302.001 132.725 302.001 132.725L289.208 133.289C289.208 133.289 294.901 135.895 293.785 143.779C293.785 143.779 313.111 142.58 313.744 140.75C314.378 138.92 310.932 122.577 310.932 122.577Z" fill="white"/>
<path opacity="0.03" d="M310.932 122.577C310.932 122.577 310.09 124.34 308.401 124.054C306.711 123.769 306.715 130.401 306.715 130.401C306.715 130.401 305.592 131.459 304.817 130.542C304.043 129.626 302.001 132.725 302.001 132.725L289.208 133.289C289.208 133.289 294.901 135.895 293.785 143.779C293.785 143.779 313.111 142.58 313.744 140.75C314.378 138.92 310.932 122.577 310.932 122.577Z" fill="black"/>
<path d="M273.755 137.432L277.127 140.317L304.888 146.159L301.445 142.64L273.755 137.432Z" fill="white"/>
<path d="M321.545 105.26C321.084 105.966 319.764 109.576 318.662 112.729C317.743 115.356 316.976 117.665 316.976 117.665C316.976 117.665 315.184 129.351 314.269 131.463C313.354 133.575 313.85 141.812 313.85 141.812L310.439 162.154C310.439 162.154 308.894 172.644 306.507 178.91C304.152 185.077 301.529 187.968 301.448 188.06C302.504 186.628 308.26 158.441 308.26 158.441L310.161 122.891C310.161 122.891 310.439 119.513 310.721 116.625C311.002 113.737 316.705 109.795 316.705 109.795L322.204 101.964C322.756 102.704 322.387 103.995 321.545 105.26Z" fill="white"/>
<path d="M307.207 150.948C307.207 150.948 299.111 150.595 295.189 145.877C291.268 141.159 304.254 143.994 304.254 143.994L307.63 144.77L307.207 150.948Z" fill="#FFB0B1"/>
<path opacity="0.1" d="M345.018 204.943C344.585 206.479 344.515 208.096 344.814 209.664C335.982 210.292 326.533 207.901 326.533 207.901C324.773 209.523 320.137 211.914 320.137 211.914L317.61 180.532C315.994 176.3 315.36 154.132 315.36 154.132C315.36 154.132 315.505 152.972 315.712 151.233C315.712 151.191 315.712 151.145 315.73 151.103C316.36 146.247 317.61 137.133 318.222 135.902C319.067 134.209 315.624 129.707 315.624 129.707L317.191 116.325L317.381 114.71C320.683 113.233 323.214 108.515 323.214 108.515L325.157 105.105C327.269 103.748 327.378 117.052 327.378 117.052L325.266 148.465L332.264 146.53C332.264 146.53 346.211 200.93 345.018 204.943Z" fill="black"/>
<path d="M354.083 207.111C344.455 211.899 326.956 207.464 326.956 207.464C325.196 209.086 320.56 211.476 320.56 211.476L318.029 180.094C316.416 175.863 315.783 153.695 315.783 153.695C315.783 153.695 317.817 137.154 318.662 135.465C318.909 134.971 318.789 134.238 318.497 133.448C317.06 129.688 316.532 125.642 316.955 121.639L317.631 115.888L317.817 114.277C321.123 112.796 323.654 108.078 323.654 108.078L325.414 104.989L328.653 99.2978L330.187 96.6039L330.448 96.8401L332.437 98.6455C332.437 98.6455 333.282 99.3507 334.549 100.409C337.305 102.736 342.068 106.833 344.525 109.34C346.687 111.547 347.37 120.133 347.567 126.597C347.697 130.853 347.62 134.188 347.62 134.188C345.441 137.781 351.14 166.628 351.14 166.628C352.467 172.203 354.083 207.111 354.083 207.111Z" fill="white"/>
<path opacity="0.03" d="M335.602 108.007C335.602 108.007 328.994 120.606 329.761 125.394C330.529 130.183 332.711 135.602 331.659 136.868C331.297 137.348 330.83 137.737 330.293 138.006C329.756 138.274 329.165 138.415 328.565 138.416C327.509 138.487 324.692 140.458 324.692 140.669C324.692 140.881 322.091 140.881 319.764 141.868C317.437 142.855 314.001 143.416 314.001 143.416C314.001 143.416 307.313 143.205 306.69 143.839C306.067 144.474 305.426 148.271 306.76 151.3C308.094 154.329 309.576 156.59 310.696 157.002C311.815 157.415 318.919 155.031 324.682 154.467C330.444 153.903 336.7 149.329 336.7 149.329C336.7 149.329 343.589 146.861 344.796 142.711C346.004 138.561 343.321 115.75 343.321 115.75C343.321 115.75 341.294 105.119 335.602 108.007Z" fill="black"/>
<path opacity="0.03" d="M334.757 106.949C334.757 106.949 328.149 119.552 328.924 124.336C329.698 129.121 331.874 134.544 330.818 135.814C330.457 136.294 329.991 136.684 329.454 136.952C328.918 137.221 328.326 137.361 327.727 137.362C326.671 137.432 323.855 139.403 323.855 139.615C323.855 139.826 321.253 139.826 318.926 140.81C316.599 141.794 313.164 142.358 313.164 142.358C313.164 142.358 306.475 142.147 305.856 142.781C305.236 143.416 304.588 147.217 305.926 150.243C307.264 153.268 308.742 155.532 309.862 155.944C310.981 156.357 318.085 153.973 323.848 153.412C329.61 152.852 335.866 148.271 335.866 148.271C335.866 148.271 342.751 145.803 343.945 141.657C345.138 137.51 342.47 114.693 342.47 114.693C342.47 114.693 340.449 104.065 334.757 106.949Z" fill="black"/>
<path d="M335.394 107.373C335.394 107.373 328.786 119.975 329.561 124.76C330.335 129.544 332.511 134.968 331.458 136.233C331.098 136.715 330.631 137.105 330.094 137.375C329.557 137.644 328.965 137.784 328.364 137.785C327.308 137.855 324.492 139.827 324.492 140.035C324.492 140.243 321.894 140.246 319.563 141.233C317.233 142.221 313.801 142.781 313.801 142.781C313.801 142.781 307.112 142.57 306.489 143.204C305.866 143.839 305.226 147.64 306.56 150.666C307.894 153.691 309.376 155.955 310.495 156.367C311.615 156.78 318.719 154.396 324.481 153.832C330.244 153.268 336.499 148.695 336.499 148.695C336.499 148.695 343.388 146.226 344.596 142.076C345.803 137.926 343.138 115.116 343.138 115.116C343.138 115.116 341.083 104.502 335.394 107.373Z" fill="white"/>
<path opacity="0.1" d="M335.25 141.173C335.25 141.173 329.969 140.116 331.807 141.879C333.644 143.642 333.634 145.186 335.883 145.116C338.133 145.045 335.25 141.173 335.25 141.173Z" fill="black"/>
<path opacity="0.1" d="M344.173 179.107C344.173 179.107 341.787 180.725 346.352 184.456C350.918 188.187 344.173 179.107 344.173 179.107Z" fill="black"/>
<path opacity="0.1" d="M339.618 192.411C339.618 192.622 338.773 200.168 341.934 202.055C345.096 203.941 339.618 192.411 339.618 192.411Z" fill="black"/>
<path d="M289.427 133.272C286.878 133.36 281.372 134.139 284.227 139.474C286.751 144.195 290.993 141.04 293.38 138.645C292.798 136.413 291.383 134.49 289.427 133.272V133.272Z" fill="#FFB0B1"/>
<path d="M293.411 138.602L293.516 138.494L293.411 138.602Z" fill="#FFB0B1"/>
<path opacity="0.1" d="M334.549 100.624C331.845 102.475 329.578 104.037 329.135 104.361C327.924 105.26 325.615 110.539 324.126 113.233C322.939 115.401 319.085 115.958 317.631 116.096L317.817 114.485C321.123 113.004 323.654 108.286 323.654 108.286L330.187 96.8119L332.437 98.8605C332.437 98.8605 333.282 99.5658 334.549 100.624Z" fill="black"/>
<path d="M334.549 100.412C331.845 102.263 329.578 103.825 329.135 104.153C327.924 105.049 325.615 110.327 324.126 113.021C322.939 115.19 319.085 115.747 317.631 115.884L317.817 114.273C321.123 112.792 323.654 108.074 323.654 108.074L330.187 96.6003L332.437 98.6419C332.437 98.6419 333.282 99.3401 334.549 100.412Z" fill="#DCE7FF"/>
<path d="M329.346 91.4276C329.348 93.5443 328.707 95.6114 327.509 97.3549C326.093 99.4164 323.987 100.901 321.573 101.541C319.158 102.18 316.595 101.931 314.347 100.839C312.1 99.7467 310.319 97.884 309.325 95.5886C308.332 93.2931 308.193 90.7171 308.934 88.3279C309.675 85.9387 311.246 83.8946 313.362 82.5665C315.479 81.2384 318.001 80.7143 320.47 81.0892C322.939 81.4642 325.193 82.7135 326.821 84.6103C328.45 86.5071 329.346 88.9258 329.346 91.4276V91.4276Z" fill="#FFB0B1"/>
<path opacity="0.1" d="M347.567 126.6C346.137 125.719 344.973 124.467 344.198 122.975C343.61 121.812 343.219 120.468 342.216 119.643C341.311 118.903 340.104 118.723 338.977 118.391C335.274 117.295 332.169 113.91 332.053 110.045C331.997 108.226 332.564 106.41 332.307 104.608C332.161 103.588 331.756 102.623 331.131 101.805C330.821 101.413 330.48 101.047 330.114 100.708C329.621 100.243 329.103 99.7914 328.653 99.2978C328.369 98.9921 328.121 98.655 327.913 98.2929C327.746 97.9965 327.61 97.6833 327.509 97.3584C326.805 95.2005 327.445 92.6406 326.671 90.4579L326.628 90.338C326.336 89.5623 325.741 88.7866 324.914 88.7266C324.087 88.6667 323.379 89.3543 322.591 89.661C320.94 90.3028 319.159 89.2097 317.782 88.0954C316.406 86.9812 314.853 85.7083 313.104 85.9551C311.946 86.1208 311.03 86.9107 309.964 87.3197C309.723 87.4131 309.474 87.4851 309.221 87.5348C310.124 85.2799 311.782 83.4103 313.911 82.2472C316.041 81.084 318.508 80.7 320.889 81.161C323.271 81.622 325.417 82.8994 326.961 84.7735C328.504 86.6477 329.347 89.0017 329.346 91.4311C329.347 92.1647 329.271 92.8964 329.117 93.6138C329.135 93.6631 329.153 93.709 329.174 93.7583C329.582 94.8161 330.043 95.9022 330.448 96.8401L332.437 98.6455C332.437 98.6455 333.282 99.3507 334.549 100.409C337.305 102.736 342.068 106.833 344.525 109.34C346.687 111.554 347.363 120.137 347.567 126.6Z" fill="black"/>
<path d="M309.84 80.8776C310.344 79.8515 310.594 78.702 311.196 77.7288C312.079 76.3184 313.621 75.4157 315.205 74.8692C319.342 73.4411 328.082 71.3678 330.694 74.8692C331.208 75.5744 331.634 76.3572 332.345 76.8438C332.888 77.214 333.542 77.3727 334.137 77.6512C335.802 78.434 336.865 80.1406 337.432 81.8825C337.999 83.6244 338.168 85.4932 338.583 87.288C339.115 89.5905 340.048 91.7732 340.977 93.9417C342.072 96.5016 343.233 99.1568 345.346 100.966C348.229 103.434 348.866 106.928 351.541 109.636C354.709 112.852 354.607 118.159 352.974 122.372C352.759 122.926 352.516 123.504 352.601 124.093C352.685 124.682 353.122 125.218 353.534 125.687L355.266 127.644C351.168 128.635 346.532 126.491 344.624 122.729C344.036 121.565 343.645 120.225 342.639 119.396C341.737 118.656 340.526 118.48 339.403 118.148C335.7 117.048 332.595 113.66 332.479 109.795C332.423 107.979 332.99 106.163 332.733 104.365C332.59 103.338 332.183 102.366 331.553 101.544C330.585 100.278 329.124 99.4283 328.336 98.0178C327.002 95.6589 328.015 92.5947 327.054 90.063C326.759 89.2873 326.167 88.5115 325.34 88.4516C324.513 88.3917 323.805 89.0792 323.013 89.386C321.366 90.0278 319.585 88.9382 318.208 87.8204C316.832 86.7027 315.279 85.4333 313.526 85.6836C312.368 85.8458 311.456 86.6357 310.39 87.0482C309.601 87.3515 308.003 87.623 307.313 86.9565C305.856 85.6131 309.231 82.1329 309.84 80.8776Z" fill="#591D4B"/>
<path opacity="0.1" d="M345.602 121.565C345.011 120.401 344.624 119.061 343.617 118.236C342.716 117.496 341.505 117.316 340.378 116.985C336.679 115.888 333.574 112.499 333.454 108.635C333.398 106.819 333.965 104.999 333.711 103.201C333.564 102.181 333.158 101.216 332.532 100.398C331.56 99.132 330.099 98.2823 329.314 96.8718C327.98 94.5164 328.994 91.4522 328.03 88.917C327.737 88.1448 327.142 87.3691 326.319 87.3056C325.495 87.2421 324.78 87.9368 323.992 88.2435C322.344 88.8853 320.56 87.7922 319.187 86.6779C317.814 85.5637 316.254 84.2908 314.505 84.5376C313.347 84.7033 312.431 85.4932 311.368 85.9022C310.58 86.2055 308.978 86.4805 308.288 85.8141C306.838 84.4036 310.214 80.9304 310.819 79.6822C311.322 78.6526 311.572 77.5066 312.178 76.5334C312.21 76.4805 312.245 76.4276 312.28 76.3748C311.827 76.7506 311.436 77.1956 311.122 77.6935C310.52 78.6667 310.27 79.8091 309.767 80.8423C309.158 82.0905 305.782 85.5743 307.236 86.9741C307.94 87.6441 309.524 87.3691 310.312 87.0658C311.368 86.6533 312.291 85.8634 313.449 85.7012C315.209 85.4509 316.758 86.7238 318.131 87.838C319.504 88.9523 321.299 90.0453 322.939 89.4036C323.728 89.0968 324.418 88.4057 325.263 88.4692C326.107 88.5327 326.671 89.3049 326.977 90.0806C327.938 92.6123 326.924 95.6765 328.258 98.0354C329.047 99.4212 330.508 100.289 331.476 101.562C332.106 102.384 332.512 103.356 332.655 104.382C332.912 106.181 332.345 107.997 332.402 109.813C332.518 113.691 335.623 117.066 339.326 118.166C340.442 118.497 341.66 118.674 342.561 119.414C343.571 120.243 343.969 121.583 344.546 122.746C346.454 126.508 351.091 128.652 355.188 127.662L354.371 126.738C350.819 126.791 347.225 124.767 345.602 121.565Z" fill="black"/>
<path opacity="0.1" d="M321.334 105.472C320.873 106.177 319.553 109.788 318.451 112.94C317.42 112.538 316.483 109.975 316.483 109.975L321.982 102.14C322.545 102.916 322.175 104.203 321.334 105.472Z" fill="black"/>
<path d="M321.545 105.26C321.084 105.966 319.764 109.576 318.662 112.729C317.631 112.33 316.694 109.763 316.694 109.763L322.193 101.932C322.756 102.704 322.387 103.995 321.545 105.26Z" fill="#DCE7FF"/>
<path d="M289.575 141.283L286.526 131.653C286.49 131.54 286.476 131.422 286.486 131.304C286.496 131.186 286.529 131.071 286.583 130.966C286.638 130.86 286.712 130.767 286.803 130.691C286.893 130.614 286.998 130.557 287.11 130.521V130.521C287.337 130.45 287.583 130.472 287.794 130.582C288.005 130.691 288.164 130.88 288.237 131.107L291.285 140.726L290.983 142.739L289.575 141.283Z" fill="#BE8B87"/>
<path opacity="0.1" d="M286.815 130.807C287.042 130.735 287.289 130.756 287.5 130.866C287.712 130.975 287.872 131.165 287.945 131.392L290.993 141.011L290.764 142.52L290.986 142.753L291.289 140.74L288.223 131.121C288.15 130.894 287.991 130.705 287.78 130.596C287.569 130.486 287.323 130.464 287.096 130.535V130.535C286.905 130.597 286.741 130.721 286.628 130.888C286.688 130.856 286.75 130.829 286.815 130.807V130.807Z" fill="white"/>
<path d="M289.574 141.283L291.285 140.74L291.035 142.39L290.983 142.753L290.483 142.231L289.574 141.283Z" fill="#EFC8C4"/>
<path d="M290.483 142.231C290.512 142.194 290.55 142.162 290.592 142.14C290.617 142.124 290.645 142.116 290.675 142.116C290.704 142.116 290.732 142.124 290.757 142.14C290.781 142.169 290.801 142.201 290.817 142.235C290.84 142.274 290.872 142.307 290.91 142.332C290.948 142.357 290.99 142.373 291.035 142.379L290.983 142.732L290.483 142.231Z" fill="#727A9C"/>
<path d="M286.508 135.073C286.508 135.073 292.623 135.038 291.183 137.644C289.743 140.25 287.494 140.563 287.494 140.563L286.508 135.073Z" fill="#FFB0B1"/>
<path d="M248.479 18.1311H248.215C237.711 18.1311 228.421 23.6988 223.077 31.9145C217.733 23.6988 208.444 18.1311 197.939 18.1311H197.675C189.792 18.2064 182.257 21.3948 176.707 27.0037C171.158 32.6125 168.043 40.1884 168.038 48.0851C168.038 57.8911 172.326 71.805 180.687 83.2542C196.616 105.07 223.077 124.157 223.077 124.157C223.077 124.157 249.539 105.074 265.464 83.2542C273.828 71.805 278.113 57.8911 278.113 48.0851C278.108 40.189 274.993 32.6136 269.445 27.0049C263.896 21.3962 256.362 18.2073 248.479 18.1311V18.1311ZM244.702 84.9326C243.506 84.928 242.339 84.5612 241.354 83.8803C240.37 83.1995 239.614 82.2363 239.186 81.1174H232.906C232.492 81.1148 232.09 80.9829 231.755 80.7402C231.419 80.4974 231.168 80.1559 231.036 79.7634L229.107 73.9418L223.003 95.3063C222.884 95.7176 222.636 96.0791 222.294 96.3366C221.953 96.5941 221.537 96.7337 221.109 96.7344H220.986C220.54 96.7128 220.115 96.5385 219.782 96.2407C219.449 95.9429 219.228 95.5397 219.156 95.0983L212.865 57.2L208.268 79.6258C208.162 80.0519 207.917 80.4302 207.572 80.7006C207.227 80.9709 206.801 81.1177 206.363 81.1174H197.517C197.252 81.1286 196.987 81.086 196.739 80.9921C196.49 80.8982 196.263 80.755 196.072 80.571C195.88 80.387 195.728 80.1661 195.624 79.9216C195.519 79.677 195.466 79.4139 195.466 79.1481C195.466 78.8822 195.519 78.6191 195.624 78.3745C195.728 78.13 195.88 77.9091 196.072 77.7251C196.263 77.5412 196.49 77.3979 196.739 77.304C196.987 77.2101 197.252 77.1675 197.517 77.1788H204.814L211.327 47.0273C211.434 46.5815 211.692 46.1868 212.057 45.9105C212.422 45.6343 212.872 45.4938 213.329 45.5129C213.787 45.5321 214.223 45.7097 214.564 46.0156C214.905 46.3214 215.13 46.7363 215.199 47.1895L221.623 85.8494L227.094 66.7345C227.208 66.3319 227.448 65.9771 227.78 65.7229C228.112 65.4687 228.517 65.3288 228.935 65.3241H228.974C229.387 65.3242 229.79 65.4552 230.125 65.6983C230.46 65.9415 230.71 66.2844 230.839 66.6781L234.328 77.1893H239.108C239.448 76.155 240.067 75.2348 240.896 74.5304C241.725 73.826 242.732 73.3647 243.806 73.1974C244.88 73.0302 245.98 73.1634 246.983 73.5825C247.987 74.0017 248.855 74.6903 249.492 75.5725C250.129 76.4546 250.511 77.496 250.595 78.5817C250.679 79.6674 250.461 80.7552 249.967 81.7249C249.472 82.6947 248.72 83.5088 247.793 84.0773C246.866 84.6458 245.8 84.9467 244.713 84.9467L244.702 84.9326Z" fill="#EFC8C4"/>
</g>
<defs>
<linearGradient id="paint0_linear" x1="125.436" y1="273.225" x2="125.436" y2="56.2515" gradientUnits="userSpaceOnUse">
<stop stop-color="#808080" stop-opacity="0.25"/>
<stop offset="0.54" stop-color="#808080" stop-opacity="0.12"/>
<stop offset="1" stop-color="#808080" stop-opacity="0.1"/>
</linearGradient>
<linearGradient id="paint1_linear" x1="78577.1" y1="163709" x2="78577.1" y2="52335" gradientUnits="userSpaceOnUse">
<stop stop-color="#808080" stop-opacity="0.25"/>
<stop offset="0.54" stop-color="#808080" stop-opacity="0.12"/>
<stop offset="1" stop-color="#808080" stop-opacity="0.1"/>
</linearGradient>
<clipPath id="clip0">
<rect width="389" height="276" fill="white"/>
</clipPath>
</defs>
</svg>
